<svg width="350" height="200" viewBox="0 0 350 200" fill="none" xmlns="http://www.w3.org/2000/svg">
<path fill-rule="evenodd" clip-rule="evenodd" d="M304.91 72.5498L305.11 130.2L309.25 131.23C310.78 133.78 312.63 136.16 314.79 138.3C315.13 138.64 315.47 138.98 315.83 139.31C322.22 145.19 330.33 147.72 338.92 148.05L339.23 147.82C335.61 147.37 331.92 145.69 329.18 143.17C325.72 139.98 323.7 135.64 323.51 130.94C323.5 130.69 323.49 130.45 323.49 130.21V91.1398C323.49 80.8798 315.18 72.5598 304.92 72.5598" fill="white"/>
<mask id="mask0_1427_486" style="mask-type:luminance" maskUnits="userSpaceOnUse" x="304" y="72" width="36" height="77">
<path d="M304.91 72.5498L305.11 130.2L309.25 131.23C310.78 133.78 312.63 136.16 314.79 138.3C315.13 138.64 315.47 138.98 315.83 139.31C322.22 145.19 330.33 147.72 338.92 148.05L339.23 147.82C335.61 147.37 331.92 145.69 329.18 143.17C325.72 139.98 323.7 135.64 323.51 130.94C323.5 130.69 323.49 130.45 323.49 130.21V91.1398C323.49 80.8798 315.18 72.5598 304.92 72.5598" fill="white"/>
</mask>
<g mask="url(#mask0_1427_486)">
<path d="M339.23 72.5498H304.91V148.04H339.23V72.5498Z" fill="white"/>
</g>
<path fill-rule="evenodd" clip-rule="evenodd" d="M305.21 112.52L328.9 112.56H328.93C329.02 112.56 329.1 112.56 329.19 112.56C329.99 112.53 332.13 112.38 334.52 111.69C342.01 109.29 347.44 102.28 347.44 94.0002L305.14 93.9502L305.22 112.53L305.21 112.52Z" fill="white"/>
<path fill-rule="evenodd" clip-rule="evenodd" d="M306.42 128.51C306.58 129.11 306.75 129.67 306.93 130.19C306.75 129.76 306.58 129.19 306.42 128.51ZM347.43 156.99V156.97C347.43 156.85 347.43 156.74 347.42 156.62C347.27 152.71 344.68 149.41 341.12 148.23C340.34 147.97 339.52 147.81 338.67 147.77C330.18 147.39 322.16 144.07 315.83 138.24C313.24 135.85 311.04 133.14 309.27 130.2H309.25C306.47 126.32 305.06 114.91 305.06 114.91C305.13 119.55 305.1 118.96 305.11 130.2C305.11 130.69 305.09 131.18 305.11 131.67C305.51 141.33 309.49 150.26 316.61 156.81C321.38 161.21 327.12 164.17 333.29 165.53C334.29 165.75 336.01 166.15 337.27 166.16C337.58 166.16 337.89 166.21 338.21 166.21C343.3 166.21 347.43 162.08 347.43 156.99Z" fill="white"/>
<mask id="mask1_1427_486" style="mask-type:luminance" maskUnits="userSpaceOnUse" x="305" y="114" width="43" height="53">
<path d="M306.42 128.51C306.58 129.11 306.75 129.67 306.93 130.19C306.75 129.76 306.58 129.19 306.42 128.51ZM347.43 156.99V156.97C347.43 156.85 347.43 156.74 347.42 156.62C347.27 152.71 344.68 149.41 341.12 148.23C340.34 147.97 339.52 147.81 338.67 147.77C330.18 147.39 322.16 144.07 315.83 138.24C313.24 135.85 311.04 133.14 309.27 130.2H309.25C306.47 126.32 305.06 114.91 305.06 114.91C305.13 119.55 305.1 118.96 305.11 130.2C305.11 130.69 305.09 131.18 305.11 131.67C305.51 141.33 309.49 150.26 316.61 156.81C321.38 161.21 327.12 164.17 333.29 165.53C334.29 165.75 336.01 166.15 337.27 166.16C337.58 166.16 337.89 166.21 338.21 166.21C343.3 166.21 347.43 162.08 347.43 156.99Z" fill="white"/>
</mask>
<g mask="url(#mask1_1427_486)">
<path d="M347.43 114.91H305.06V166.21H347.43V114.91Z" fill="white"/>
</g>
<path fill-rule="evenodd" clip-rule="evenodd" d="M239.34 128.86V128.99C239.34 129.41 239.38 129.72 239.44 130.14H239.47C239.47 129.74 239.5 129.31 239.53 128.9C239.84 124.37 242.1 120.21 245.57 117.08C248.22 114.68 251.58 113.15 255.13 112.72C257.62 112.41 260.07 112.63 262.37 113.3C266.17 114.41 269.59 117.05 270.49 117.95C271.38 118.84 272.92 118.73 274.26 118.73C279.47 118.73 283.69 114.5 283.69 109.29C283.69 107.71 283.3 106.22 282.62 104.91C282.55 104.78 282.48 104.65 282.4 104.52C282.13 104.05 281.81 103.61 281.46 103.19C280.58 102.4 279.66 101.66 278.72 100.97C274.78 98.07 269.97 95.96 265.24 94.85C265.08 94.81 264.91 94.78 264.75 94.75C259.16 96.48 254.05 99.65 249.84 103.88C249.5 104.22 249.17 104.57 248.84 104.92C243.02 111.25 239.78 119.16 239.4 127.65C239.38 128.05 239.34 128.45 239.33 128.85L239.34 128.86Z" fill="white"/>
<mask id="mask2_1427_486" style="mask-type:luminance" maskUnits="userSpaceOnUse" x="239" y="94" width="45" height="37">
<path d="M239.34 128.86V128.99C239.34 129.41 239.38 129.72 239.44 130.14H239.47C239.47 129.74 239.5 129.31 239.53 128.9C239.84 124.37 242.1 120.21 245.57 117.08C248.22 114.68 251.58 113.15 255.13 112.72C257.62 112.41 260.07 112.63 262.37 113.3C266.17 114.41 269.59 117.05 270.49 117.95C271.38 118.84 272.92 118.73 274.26 118.73C279.47 118.73 283.69 114.5 283.69 109.29C283.69 107.71 283.3 106.22 282.62 104.91C282.55 104.78 282.48 104.65 282.4 104.52C282.13 104.05 281.81 103.61 281.46 103.19C280.58 102.4 279.66 101.66 278.72 100.97C274.78 98.07 269.97 95.96 265.24 94.85C265.08 94.81 264.91 94.78 264.75 94.75C259.16 96.48 254.05 99.65 249.84 103.88C249.5 104.22 249.17 104.57 248.84 104.92C243.02 111.25 239.78 119.16 239.4 127.65C239.38 128.05 239.34 128.45 239.33 128.85L239.34 128.86Z" fill="white"/>
</mask>
<g mask="url(#mask2_1427_486)">
<path d="M239.34 130.14H283.46L283.7 94.7598H239.58L239.34 130.14Z" fill="white"/>
</g>
<path fill-rule="evenodd" clip-rule="evenodd" d="M258.74 116.7C250.03 122.11 247.35 133.57 252.77 142.28L289.53 119.45H289.54C290.75 118.47 291.15 116.79 290.52 115.38C289.64 113.41 288.6 111.54 287.4 109.78C285.63 107.18 283.35 104.83 280.99 102.77L258.75 116.7H258.74Z" fill="white"/>
<mask id="mask3_1427_486" style="mask-type:luminance" maskUnits="userSpaceOnUse" x="249" y="102" width="42" height="41">
<path d="M258.74 116.7C250.03 122.11 247.35 133.57 252.77 142.28L289.53 119.45H289.54C290.75 118.47 291.15 116.79 290.52 115.38C289.64 113.41 288.6 111.54 287.4 109.78C285.63 107.18 283.35 104.83 280.99 102.77L258.75 116.7H258.74Z" fill="white"/>
</mask>
<g mask="url(#mask3_1427_486)">
<path d="M291.15 102.77H247.36V142.28H291.15V102.77Z" fill="white"/>
</g>
<path fill-rule="evenodd" clip-rule="evenodd" d="M257.21 93.9399H257.11C256.63 93.9399 256.15 93.9499 255.67 93.9699C246.01 94.3699 237.08 98.5099 230.53 105.63C226.14 110.4 223.17 116.14 221.81 122.31V122.33C223.54 127.92 226.61 133.02 230.84 137.22C231.18 137.56 231.53 137.9 231.88 138.23C238.98 144.76 248.18 148.14 257.81 147.77C253.14 147.94 248.68 146.29 245.24 143.13C241.78 139.94 239.76 135.6 239.56 130.89C239.16 121.23 242.74 112.01 249.29 104.9C253.68 100.13 259 96.6899 265.03 94.8299H265.06C262.53 94.2799 259.84 93.9599 257.21 93.9599V93.9399Z" fill="white"/>
<mask id="mask4_1427_486" style="mask-type:luminance" maskUnits="userSpaceOnUse" x="221" y="93" width="45" height="55">
<path d="M257.21 93.9399H257.11C256.63 93.9399 256.15 93.9499 255.67 93.9699C246.01 94.3699 237.08 98.5099 230.53 105.63C226.14 110.4 223.17 116.14 221.81 122.31V122.33C223.54 127.92 226.61 133.02 230.84 137.22C231.18 137.56 231.53 137.9 231.88 138.23C238.98 144.76 248.18 148.14 257.81 147.77C253.14 147.94 248.68 146.29 245.24 143.13C241.78 139.94 239.76 135.6 239.56 130.89C239.16 121.23 242.74 112.01 249.29 104.9C253.68 100.13 259 96.6899 265.03 94.8299H265.06C262.53 94.2799 259.84 93.9599 257.21 93.9599V93.9399Z" fill="white"/>
</mask>
<g mask="url(#mask4_1427_486)">
<path d="M265.23 93.9897H221.98V148.18H265.23V93.9897Z" fill="white"/>
</g>
<path fill-rule="evenodd" clip-rule="evenodd" d="M168.14 93.9199H168.02C167.55 93.9199 167.07 93.9299 166.6 93.9499C156.8 94.3599 147.75 98.5599 141.11 105.77C136.65 110.61 132.79 116.43 131.42 122.69C132.28 125.47 134.32 128.14 135.81 130.63H150.22L150.25 130.68C150.25 126.18 151.91 121.86 154.98 118.53C158.21 115.02 162.62 112.98 167.39 112.77C177.19 112.36 186.56 115.8 193.77 122.44C196.41 124.87 198.65 127.63 200.44 130.63C201.93 133.13 204.83 138.57 204.83 138.57C204.83 138.57 204.83 133.33 204.83 130.63C204.83 130.12 204.83 129.62 204.8 129.11C204.39 119.31 200.19 110.26 192.98 103.62C188.14 99.1699 182.32 96.1499 176.06 94.7799C173.52 94.2199 170.91 93.9299 168.26 93.9199H168.14Z" fill="white"/>
<mask id="mask5_1427_486" style="mask-type:luminance" maskUnits="userSpaceOnUse" x="131" y="93" width="74" height="46">
<path d="M168.14 93.9199H168.02C167.55 93.9199 167.07 93.9299 166.6 93.9499C156.8 94.3599 147.75 98.5599 141.11 105.77C136.65 110.61 132.79 116.43 131.42 122.69C132.28 125.47 134.32 128.14 135.81 130.63H150.22L150.25 130.68C150.25 126.18 151.91 121.86 154.98 118.53C158.21 115.02 162.62 112.98 167.39 112.77C177.19 112.36 186.56 115.8 193.77 122.44C196.41 124.87 198.65 127.63 200.44 130.63C201.93 133.13 204.83 138.57 204.83 138.57C204.83 138.57 204.83 133.33 204.83 130.63C204.83 130.12 204.83 129.62 204.8 129.11C204.39 119.31 200.19 110.26 192.98 103.62C188.14 99.1699 182.32 96.1499 176.06 94.7799C173.52 94.2199 170.91 93.9299 168.26 93.9199H168.14Z" fill="white"/>
</mask>
<g mask="url(#mask5_1427_486)">
<path d="M204.83 93.9199H131.41V138.57H204.83V93.9199Z" fill="white"/>
</g>
<path fill-rule="evenodd" clip-rule="evenodd" d="M204.83 166.47V138.57L200.44 130.63C198.89 128.04 197.01 125.63 194.82 123.46C194.47 123.12 194.12 122.78 193.76 122.44C186.93 116.15 178.17 112.74 168.94 112.74C168.45 112.74 167.96 112.74 167.47 112.77C172.2 112.6 176.73 114.27 180.21 117.48C183.72 120.71 185.77 125.12 185.97 129.89C185.98 130.14 185.99 130.38 185.99 130.63V147.64C185.99 158.04 194.42 166.47 204.82 166.47H204.83Z" fill="white"/>
<mask id="mask6_1427_486" style="mask-type:luminance" maskUnits="userSpaceOnUse" x="167" y="112" width="38" height="55">
<path d="M204.83 166.47V138.57L200.44 130.63C198.89 128.04 197.01 125.63 194.82 123.46C194.47 123.12 194.12 122.78 193.76 122.44C186.93 116.15 178.17 112.74 168.94 112.74C168.45 112.74 167.96 112.74 167.47 112.77C172.2 112.6 176.73 114.27 180.21 117.48C183.72 120.71 185.77 125.12 185.97 129.89C185.98 130.14 185.99 130.38 185.99 130.63V147.64C185.99 158.04 194.42 166.47 204.82 166.47H204.83Z" fill="white"/>
</mask>
<g mask="url(#mask6_1427_486)">
<path d="M204.83 112.6H167.38V166.47H204.83V112.6Z" fill="white"/>
</g>
<path fill-rule="evenodd" clip-rule="evenodd" d="M102.08 159.28V159.14C102.07 159.56 102.04 160.11 102.01 160.52H102.04L102.09 160.55C102.09 160.13 102.09 159.7 102.08 159.28Z" fill="white"/>
<path fill-rule="evenodd" clip-rule="evenodd" d="M91.8798 175.48C89.2298 177.88 85.8698 179.41 82.3298 179.85C79.8398 180.16 77.3898 179.94 75.0898 179.27C71.2898 178.16 67.9698 175.26 67.3098 174.86C66.1898 174.19 64.5398 173.83 63.1998 173.83C57.9898 173.83 53.7598 178.05 53.7598 183.27C53.7598 184.85 54.1498 186.34 54.8398 187.65C54.9098 187.78 54.9798 187.91 55.0598 188.04C55.3298 188.51 55.6498 188.95 55.9998 189.37C56.8798 190.16 57.7998 190.9 58.7398 191.59C62.8098 194.58 67.7498 196.76 72.6298 197.83C87.1598 193.35 97.1098 180.03 97.7998 164.85C97.8198 164.45 97.8398 164.04 97.8398 163.63L97.6898 163.61C97.3798 168.14 95.3498 172.36 91.8798 175.49" fill="white"/>
<mask id="mask7_1427_486" style="mask-type:luminance" maskUnits="userSpaceOnUse" x="53" y="163" width="45" height="35">
<path d="M91.8798 175.48C89.2298 177.88 85.8698 179.41 82.3298 179.85C79.8398 180.16 77.3898 179.94 75.0898 179.27C71.2898 178.16 67.9698 175.26 67.3098 174.86C66.1898 174.19 64.5398 173.83 63.1998 173.83C57.9898 173.83 53.7598 178.05 53.7598 183.27C53.7598 184.85 54.1498 186.34 54.8398 187.65C54.9098 187.78 54.9798 187.91 55.0598 188.04C55.3298 188.51 55.6498 188.95 55.9998 189.37C56.8798 190.16 57.7998 190.9 58.7398 191.59C62.8098 194.58 67.7498 196.76 72.6298 197.83C87.1598 193.35 97.1098 180.03 97.7998 164.85C97.8198 164.45 97.8398 164.04 97.8398 163.63L97.6898 163.61C97.3798 168.14 95.3498 172.36 91.8798 175.49" fill="white"/>
</mask>
<g mask="url(#mask7_1427_486)">
<path d="M97.8398 163.59H53.7598V197.81H97.8398V163.59Z" fill="white"/>
</g>
<path fill-rule="evenodd" clip-rule="evenodd" d="M80.14 94.0398H80.02C79.55 94.0398 79.09 94.0498 78.61 94.0698C68.95 94.4698 60.02 98.6098 53.47 105.73C49.08 110.51 46.11 116.24 44.75 122.42C45.59 125.16 46.77 127.79 48.24 130.25C49.77 132.8 51.62 135.18 53.78 137.33C54.12 137.67 54.47 138 54.82 138.33C61.94 144.88 71.18 148.26 80.84 147.86C76.14 148.05 71.64 146.41 68.17 143.22C64.71 140.03 62.69 135.69 62.49 130.98C62.49 130.74 62.47 130.49 62.47 130.25C62.26 120.85 65.64 111.9 72.02 104.96C76.42 100.18 81.88 96.7498 87.93 94.8798H87.92C85.42 94.3298 82.85 94.0398 80.24 94.0298H80.12L80.14 94.0398Z" fill="white"/>
<mask id="mask8_1427_486" style="mask-type:luminance" maskUnits="userSpaceOnUse" x="44" y="94" width="44" height="54">
<path d="M80.14 94.0398H80.02C79.55 94.0398 79.09 94.0498 78.61 94.0698C68.95 94.4698 60.02 98.6098 53.47 105.73C49.08 110.51 46.11 116.24 44.75 122.42C45.59 125.16 46.77 127.79 48.24 130.25C49.77 132.8 51.62 135.18 53.78 137.33C54.12 137.67 54.47 138 54.82 138.33C61.94 144.88 71.18 148.26 80.84 147.86C76.14 148.05 71.64 146.41 68.17 143.22C64.71 140.03 62.69 135.69 62.49 130.98C62.49 130.74 62.47 130.49 62.47 130.25C62.26 120.85 65.64 111.9 72.02 104.96C76.42 100.18 81.88 96.7498 87.93 94.8798H87.92C85.42 94.3298 82.85 94.0398 80.24 94.0298H80.12L80.14 94.0398Z" fill="white"/>
</mask>
<g mask="url(#mask8_1427_486)">
<path d="M87.9498 94.0396H44.7598V148.26H87.9498V94.0396Z" fill="white"/>
</g>
<path fill-rule="evenodd" clip-rule="evenodd" d="M0.140137 114.95C0.260137 127.48 2.81014 138.61 12.5001 147.53C16.0001 150.75 20.0301 153.2 24.3601 154.82C28.1201 156.22 32.1101 157 36.2101 157.09C36.9801 157.11 37.7501 157.1 38.5201 157.07C39.8701 157.01 41.2001 156.88 42.5101 156.68C42.3501 152.77 39.7601 149.47 36.2101 148.29C35.4301 148.03 34.6101 147.87 33.7601 147.83C25.2701 147.45 17.2501 144.13 10.9201 138.3C8.32014 135.91 6.13014 133.2 4.36014 130.26H4.34014C1.54014 126.34 0.150137 114.96 0.150137 114.96" fill="white"/>
<mask id="mask9_1427_486" style="mask-type:luminance" maskUnits="userSpaceOnUse" x="0" y="114" width="43" height="44">
<path d="M0.140137 114.95C0.260137 127.48 2.81014 138.61 12.5001 147.53C16.0001 150.75 20.0301 153.2 24.3601 154.82C28.1201 156.22 32.1101 157 36.2101 157.09C36.9801 157.11 37.7501 157.1 38.5201 157.07C39.8701 157.01 41.2001 156.88 42.5101 156.68C42.3501 152.77 39.7601 149.47 36.2101 148.29C35.4301 148.03 34.6101 147.87 33.7601 147.83C25.2701 147.45 17.2501 144.13 10.9201 138.3C8.32014 135.91 6.13014 133.2 4.36014 130.26H4.34014C1.54014 126.34 0.150137 114.96 0.150137 114.96" fill="white"/>
</mask>
<g mask="url(#mask9_1427_486)">
<path d="M42.5101 114.95H0.140137V157.1H42.5101V114.95Z" fill="white"/>
</g>
<path fill-rule="evenodd" clip-rule="evenodd" d="M0 72.6001C0 72.6001 8.86 79.4801 8.86 90.2701V130.25C8.82 132.64 8.98 134.96 9.39 137.32C9.73 137.66 10.56 138 10.92 138.33C17.28 144.18 25.37 147.54 34.01 147.86L34.08 147.84C30.47 147.39 27.01 145.73 24.28 143.22C20.82 140.03 18.8 135.69 18.6 130.99C18.6 130.74 18.58 130.5 18.58 130.26V91.1801C18.58 80.9201 10.26 72.6001 0.01 72.6001H0Z" fill="white"/>
<mask id="mask10_1427_486" style="mask-type:luminance" maskUnits="userSpaceOnUse" x="0" y="72" width="35" height="76">
<path d="M0 72.6001C0 72.6001 8.86 79.4801 8.86 90.2701V130.25C8.82 132.64 8.98 134.96 9.39 137.32C9.73 137.66 10.56 138 10.92 138.33C17.28 144.18 25.37 147.54 34.01 147.86L34.08 147.84C30.47 147.39 27.01 145.73 24.28 143.22C20.82 140.03 18.8 135.69 18.6 130.99C18.6 130.74 18.58 130.5 18.58 130.26V91.1801C18.58 80.9201 10.26 72.6001 0.01 72.6001H0Z" fill="white"/>
</mask>
<g mask="url(#mask10_1427_486)">
<path d="M34.07 72.6001H0V147.86H34.07V72.6001Z" fill="white"/>
</g>
<path fill-rule="evenodd" clip-rule="evenodd" d="M0 72.6001L0.2 130.25H4.33C5.86 132.8 7.71 135.18 9.87 137.32C9.6 135.76 9.43 134.17 9.36 132.57C9.33 131.79 9.32 131.02 9.34 130.25V90.2701C9.34 79.4901 0 72.6001 0 72.6001Z" fill="white"/>
<mask id="mask11_1427_486" style="mask-type:luminance" maskUnits="userSpaceOnUse" x="0" y="72" width="10" height="66">
<path d="M0 72.6001L0.2 130.25H4.33C5.86 132.8 7.71 135.18 9.87 137.32C9.6 135.76 9.43 134.17 9.36 132.57C9.33 131.79 9.32 131.02 9.34 130.25V90.2701C9.34 79.4901 0 72.6001 0 72.6001Z" fill="white"/>
</mask>
<g mask="url(#mask11_1427_486)">
<path d="M9.87 72.6001H0V137.32H9.87V72.6001Z" fill="white"/>
</g>
<path fill-rule="evenodd" clip-rule="evenodd" d="M221.07 131.7C221.4 139.7 224.29 147.19 229.31 153.24C238.74 159.88 247.24 159.26 253.01 156.93C258.29 154.79 262.06 151.46 262.06 151.46L267.53 144.15C266.31 145.17 265.66 145.58 264.89 145.95C262.74 146.99 260.34 147.7 257.99 147.8C248.33 148.2 239.08 144.81 231.97 138.27C227.19 133.87 223.76 128.41 221.9 122.36C221.24 125.39 220.95 128.52 221.09 131.69" fill="white"/>
<mask id="mask12_1427_486" style="mask-type:luminance" maskUnits="userSpaceOnUse" x="221" y="122" width="47" height="37">
<path d="M221.07 131.7C221.4 139.7 224.29 147.19 229.31 153.24C238.74 159.88 247.24 159.26 253.01 156.93C258.29 154.79 262.06 151.46 262.06 151.46L267.53 144.15C266.31 145.17 265.66 145.58 264.89 145.95C262.74 146.99 260.34 147.7 257.99 147.8C248.33 148.2 239.08 144.81 231.97 138.27C227.19 133.87 223.76 128.41 221.9 122.36C221.24 125.39 220.95 128.52 221.09 131.69" fill="white"/>
</mask>
<g mask="url(#mask12_1427_486)">
<path d="M267.43 122.36H220.94V159.88H267.43V122.36Z" fill="white"/>
</g>
<path fill-rule="evenodd" clip-rule="evenodd" d="M188.18 126.85C188.19 127.1 188.19 127.34 188.19 127.59C188.19 127.34 188.18 127.1 188.17 126.85" fill="white"/>
<mask id="mask13_1427_486" style="mask-type:luminance" maskUnits="userSpaceOnUse" x="188" y="126" width="1" height="2">
<path d="M188.18 126.85C188.19 127.1 188.19 127.34 188.19 127.59C188.19 127.34 188.18 127.1 188.17 126.85" fill="white"/>
</mask>
<g mask="url(#mask13_1427_486)">
<path d="M188.2 126.85H188.18V127.59H188.2V126.85Z" fill="white"/>
</g>
<path fill-rule="evenodd" clip-rule="evenodd" d="M323.5 130.19H323.49C323.49 130.43 323.5 130.68 323.51 130.92C323.5 130.67 323.5 130.43 323.5 130.19Z" fill="white"/>
<mask id="mask14_1427_486" style="mask-type:luminance" maskUnits="userSpaceOnUse" x="323" y="130" width="1" height="1">
<path d="M323.5 130.19H323.49C323.49 130.43 323.5 130.68 323.51 130.92C323.5 130.67 323.5 130.43 323.5 130.19Z" fill="white"/>
</mask>
<g mask="url(#mask14_1427_486)">
<path d="M323.51 130.19H323.49V130.92H323.51V130.19Z" fill="white"/>
</g>
<path d="M339.61 109.17C339.48 109.27 339.35 109.37 339.21 109.47C339.36 109.36 339.5 109.26 339.61 109.17Z" fill="white"/>
<path d="M339.62 109.16C339.88 108.95 340.02 108.82 340.02 108.82C339.89 108.94 339.75 109.05 339.62 109.16Z" fill="white"/>
<path fill-rule="evenodd" clip-rule="evenodd" d="M267.52 144.15C266.76 144.93 261.32 151.16 261.32 151.16C261.32 151.16 258.15 154.54 252.87 156.68C247.11 159.01 238.83 159.87 229.4 153.23C230.45 154.49 231.59 155.7 232.82 156.83C237.6 161.23 243.33 164.19 249.51 165.55C252.53 166.22 255.66 166.49 258.83 166.36C266.8 166.03 274.27 163.14 280.32 158.15L280.52 157.95C282.63 156.22 283.68 153.7 283.68 150.75C283.68 147.02 281.52 143.81 278.39 142.27C277.14 141.66 275.73 141.31 274.25 141.31C271.61 141.31 269.22 142.39 267.51 144.14" fill="white"/>
<mask id="mask15_1427_486" style="mask-type:luminance" maskUnits="userSpaceOnUse" x="229" y="141" width="55" height="26">
<path d="M267.52 144.15C266.76 144.93 261.32 151.16 261.32 151.16C261.32 151.16 258.15 154.54 252.87 156.68C247.11 159.01 238.83 159.87 229.4 153.23C230.45 154.49 231.59 155.7 232.82 156.83C237.6 161.23 243.33 164.19 249.51 165.55C252.53 166.22 255.66 166.49 258.83 166.36C266.8 166.03 274.27 163.14 280.32 158.15L280.52 157.95C282.63 156.22 283.68 153.7 283.68 150.75C283.68 147.02 281.52 143.81 278.39 142.27C277.14 141.66 275.73 141.31 274.25 141.31C271.61 141.31 269.22 142.39 267.51 144.14" fill="white"/>
</mask>
<g mask="url(#mask15_1427_486)">
<path d="M283.7 141.32H229.41V166.5H283.7V141.32Z" fill="white"/>
</g>
<path fill-rule="evenodd" clip-rule="evenodd" d="M45.9502 125.18C45.9502 125.45 45.9502 125.71 45.9702 125.98C46.3702 135.64 50.5102 144.57 57.6302 151.12C62.4102 155.52 68.1402 158.48 74.3202 159.84C77.3502 160.5 80.4802 160.78 83.6502 160.65C93.3102 160.25 102.24 156.11 108.79 148.99C111.77 145.74 114.47 142.05 116.33 138.08C115.37 136.3 114.15 134.57 113.16 132.92H98.9102C98.9102 137.36 97.2802 141.57 94.2602 144.85C91.0702 148.31 86.7302 150.33 82.0202 150.53C72.3602 150.93 63.1202 147.55 56.0002 141C53.3902 138.6 51.1902 135.88 49.4202 132.92C47.9602 130.49 46.8002 127.89 45.9502 125.18Z" fill="white"/>
<mask id="mask16_1427_486" style="mask-type:luminance" maskUnits="userSpaceOnUse" x="45" y="125" width="72" height="36">
<path d="M45.9502 125.18C45.9502 125.45 45.9502 125.71 45.9702 125.98C46.3702 135.64 50.5102 144.57 57.6302 151.12C62.4102 155.52 68.1402 158.48 74.3202 159.84C77.3502 160.5 80.4802 160.78 83.6502 160.65C93.3102 160.25 102.24 156.11 108.79 148.99C111.77 145.74 114.47 142.05 116.33 138.08C115.37 136.3 114.15 134.57 113.16 132.92H98.9102C98.9102 137.36 97.2802 141.57 94.2602 144.85C91.0702 148.31 86.7302 150.33 82.0202 150.53C72.3602 150.93 63.1202 147.55 56.0002 141C53.3902 138.6 51.1902 135.88 49.4202 132.92C47.9602 130.49 46.8002 127.89 45.9502 125.18Z" fill="white"/>
</mask>
<g mask="url(#mask16_1427_486)">
<path d="M116.32 125.18H45.9502V160.78H116.32V125.18Z" fill="white"/>
</g>
<path fill-rule="evenodd" clip-rule="evenodd" d="M102.05 126.44C102.05 126.68 102.06 126.93 102.06 127.17C102.06 126.93 102.05 126.68 102.04 126.44" fill="white"/>
<mask id="mask17_1427_486" style="mask-type:luminance" maskUnits="userSpaceOnUse" x="102" y="126" width="1" height="2">
<path d="M102.05 126.44C102.05 126.68 102.06 126.93 102.06 127.17C102.06 126.93 102.05 126.68 102.04 126.44" fill="white"/>
</mask>
<g mask="url(#mask17_1427_486)">
<path d="M102.07 126.44H102.05V127.17H102.07V126.44Z" fill="white"/>
</g>
<path d="M105.16 172.88C105.27 173.04 105.37 173.17 105.46 173.28C105.36 173.15 105.26 173.02 105.16 172.88Z" fill="white"/>
<path d="M105.46 173.29C105.67 173.55 105.8 173.69 105.8 173.69C105.68 173.56 105.57 173.42 105.46 173.29Z" fill="white"/>
<path fill-rule="evenodd" clip-rule="evenodd" d="M18.5798 130.26H18.5698C18.5698 130.5 18.5798 130.75 18.5898 130.99C18.5898 130.74 18.5798 130.5 18.5798 130.26Z" fill="white"/>
<mask id="mask18_1427_486" style="mask-type:luminance" maskUnits="userSpaceOnUse" x="18" y="130" width="1" height="1">
<path d="M18.5798 130.26H18.5698C18.5698 130.5 18.5798 130.75 18.5898 130.99C18.5898 130.74 18.5798 130.5 18.5798 130.26Z" fill="white"/>
</mask>
<g mask="url(#mask18_1427_486)">
<path d="M18.5898 130.26H18.5698V130.99H18.5898V130.26Z" fill="white"/>
</g>
<path fill-rule="evenodd" clip-rule="evenodd" d="M188.18 126.85C188.19 127.1 188.19 127.34 188.19 127.59C188.19 127.34 188.18 127.1 188.17 126.85" fill="white"/>
<mask id="mask19_1427_486" style="mask-type:luminance" maskUnits="userSpaceOnUse" x="188" y="126" width="1" height="2">
<path d="M188.18 126.85C188.19 127.1 188.19 127.34 188.19 127.59C188.19 127.34 188.18 127.1 188.17 126.85" fill="white"/>
</mask>
<g mask="url(#mask19_1427_486)">
<path d="M188.2 126.85H188.18V127.59H188.2V126.85Z" fill="white"/>
</g>
<path fill-rule="evenodd" clip-rule="evenodd" d="M323.5 130.19H323.49C323.49 130.43 323.5 130.68 323.51 130.92C323.5 130.67 323.5 130.43 323.5 130.19Z" fill="white"/>
<mask id="mask20_1427_486" style="mask-type:luminance" maskUnits="userSpaceOnUse" x="323" y="130" width="1" height="1">
<path d="M323.5 130.19H323.49C323.49 130.43 323.5 130.68 323.51 130.92C323.5 130.67 323.5 130.43 323.5 130.19Z" fill="white"/>
</mask>
<g mask="url(#mask20_1427_486)">
<path d="M323.51 130.19H323.49V130.92H323.51V130.19Z" fill="white"/>
</g>
<path d="M339.61 109.17C339.48 109.27 339.35 109.37 339.21 109.47C339.36 109.36 339.5 109.26 339.61 109.17Z" fill="white"/>
<path d="M339.62 109.16C339.88 108.95 340.02 108.82 340.02 108.82C339.89 108.94 339.75 109.05 339.62 109.16Z" fill="white"/>
<path fill-rule="evenodd" clip-rule="evenodd" d="M43.9199 131.51C43.9199 132.01 43.9199 132.51 43.9499 133.02C44.3499 142.68 48.4899 151.61 55.6099 158.16C60.3899 162.55 66.1199 165.52 72.2999 166.88C75.3199 167.55 78.4599 167.82 81.6299 167.69C91.2899 167.29 100.22 163.15 106.77 156.03C111.17 151.25 114.97 145.52 116.33 139.34C115.49 136.59 113.47 133.97 112 131.51H97.7499C97.7499 135.95 96.1199 140.16 93.0999 143.44C89.9099 146.9 85.5699 148.92 80.8599 149.12C71.1999 149.52 61.9599 146.14 54.8399 139.59C52.2299 137.19 50.0299 134.47 48.2599 131.51C46.7899 129.05 45.6099 126.43 44.7699 123.68C44.2099 126.23 43.9299 128.85 43.9299 131.51" fill="white"/>
<mask id="mask21_1427_486" style="mask-type:luminance" maskUnits="userSpaceOnUse" x="43" y="123" width="74" height="45">
<path d="M43.9199 131.51C43.9199 132.01 43.9199 132.51 43.9499 133.02C44.3499 142.68 48.4899 151.61 55.6099 158.16C60.3899 162.55 66.1199 165.52 72.2999 166.88C75.3199 167.55 78.4599 167.82 81.6299 167.69C91.2899 167.29 100.22 163.15 106.77 156.03C111.17 151.25 114.97 145.52 116.33 139.34C115.49 136.59 113.47 133.97 112 131.51H97.7499C97.7499 135.95 96.1199 140.16 93.0999 143.44C89.9099 146.9 85.5699 148.92 80.8599 149.12C71.1999 149.52 61.9599 146.14 54.8399 139.59C52.2299 137.19 50.0299 134.47 48.2599 131.51C46.7899 129.05 45.6099 126.43 44.7699 123.68C44.2099 126.23 43.9299 128.85 43.9299 131.51" fill="white"/>
</mask>
<g mask="url(#mask21_1427_486)">
<path d="M116.32 123.68H43.9102V167.82H116.32V123.68Z" fill="white"/>
</g>
<path fill-rule="evenodd" clip-rule="evenodd" d="M43.9199 130.25C43.9199 130.75 43.9199 131.25 43.9499 131.76C44.3499 141.42 48.4899 150.35 55.6099 156.9C60.3899 161.29 66.1199 164.26 72.2999 165.62C75.3199 166.29 78.4599 166.56 81.6299 166.43C91.2899 166.03 100.22 161.89 106.77 154.77C111.17 149.99 114.97 144.26 116.33 138.08C115.49 135.33 113.47 132.71 112 130.25H97.7499C97.7499 134.69 96.1199 138.9 93.0999 142.18C89.9099 145.64 85.5699 147.66 80.8599 147.86C71.1999 148.26 61.9599 144.88 54.8399 138.33C52.2299 135.93 50.0299 133.21 48.2599 130.25C46.7899 127.79 45.6099 125.17 44.7699 122.42C44.2099 124.97 43.9299 127.59 43.9299 130.25" fill="white"/>
<mask id="mask22_1427_486" style="mask-type:luminance" maskUnits="userSpaceOnUse" x="43" y="122" width="74" height="45">
<path d="M43.9199 130.25C43.9199 130.75 43.9199 131.25 43.9499 131.76C44.3499 141.42 48.4899 150.35 55.6099 156.9C60.3899 161.29 66.1199 164.26 72.2999 165.62C75.3199 166.29 78.4599 166.56 81.6299 166.43C91.2899 166.03 100.22 161.89 106.77 154.77C111.17 149.99 114.97 144.26 116.33 138.08C115.49 135.33 113.47 132.71 112 130.25H97.7499C97.7499 134.69 96.1199 138.9 93.0999 142.18C89.9099 145.64 85.5699 147.66 80.8599 147.86C71.1999 148.26 61.9599 144.88 54.8399 138.33C52.2299 135.93 50.0299 133.21 48.2599 130.25C46.7899 127.79 45.6099 125.17 44.7699 122.42C44.2099 124.97 43.9299 127.59 43.9299 130.25" fill="white"/>
</mask>
<g mask="url(#mask22_1427_486)">
<path d="M116.32 122.42H43.9102V166.56H116.32V122.42Z" fill="white"/>
</g>
<path fill-rule="evenodd" clip-rule="evenodd" d="M102.05 126.44C102.05 126.68 102.06 126.93 102.06 127.17C102.06 126.93 102.05 126.68 102.04 126.44" fill="white"/>
<mask id="mask23_1427_486" style="mask-type:luminance" maskUnits="userSpaceOnUse" x="102" y="126" width="1" height="2">
<path d="M102.05 126.44C102.05 126.68 102.06 126.93 102.06 127.17C102.06 126.93 102.05 126.68 102.04 126.44" fill="white"/>
</mask>
<g mask="url(#mask23_1427_486)">
<path d="M102.07 126.44H102.05V127.17H102.07V126.44Z" fill="white"/>
</g>
<path d="M105.16 172.88C105.27 173.04 105.37 173.17 105.46 173.28C105.36 173.15 105.26 173.02 105.16 172.88Z" fill="white"/>
<path d="M105.46 173.29C105.67 173.55 105.8 173.69 105.8 173.69C105.68 173.56 105.57 173.42 105.46 173.29Z" fill="white"/>
<path fill-rule="evenodd" clip-rule="evenodd" d="M18.5798 130.26H18.5698C18.5698 130.5 18.5798 130.75 18.5898 130.99C18.5898 130.74 18.5798 130.5 18.5798 130.26Z" fill="white"/>
<mask id="mask24_1427_486" style="mask-type:luminance" maskUnits="userSpaceOnUse" x="18" y="130" width="1" height="1">
<path d="M18.5798 130.26H18.5698C18.5698 130.5 18.5798 130.75 18.5898 130.99C18.5898 130.74 18.5798 130.5 18.5798 130.26Z" fill="white"/>
</mask>
<g mask="url(#mask24_1427_486)">
<path d="M18.5898 130.26H18.5698V130.99H18.5898V130.26Z" fill="white"/>
</g>
<path fill-rule="evenodd" clip-rule="evenodd" d="M33.2899 166.26H33.2999C38.3899 166.26 42.5199 162.13 42.5199 157.04C42.5199 156.91 42.5199 156.79 42.5199 156.67C41.2099 156.87 39.8799 157 38.5299 157.06C37.7599 157.09 36.9799 157.1 36.2199 157.08C35.6899 157.07 35.1599 157.04 34.6399 157.01C34.3999 156.99 34.1699 156.97 33.9299 156.95C33.6499 156.93 33.3699 156.91 33.0899 156.87C32.7699 156.84 32.4599 156.79 32.1399 156.75C31.9499 156.73 31.7599 156.7 31.5699 156.67C31.1999 156.61 30.8399 156.55 30.4699 156.48C30.3399 156.46 30.2099 156.44 30.0799 156.41C29.6699 156.33 29.2699 156.24 28.8599 156.15L28.6099 156.09C28.1699 155.99 27.7399 155.87 27.3099 155.75L27.1799 155.71C26.7199 155.58 26.2699 155.44 25.8099 155.3H25.7599C25.2899 155.13 24.8199 154.97 24.3599 154.8C20.0299 153.19 16.0099 150.74 12.4999 147.51C2.4199 138.25 0.789902 128.28 0.149902 115.34C0.149902 115.67 0.199902 127.64 0.199902 130.26C0.199902 130.75 0.179902 131.24 0.199902 131.73C0.599902 141.39 4.5799 150.32 11.6899 156.87C16.4699 161.27 22.1999 164.23 28.3799 165.59C29.3799 165.81 31.0999 166.21 32.3599 166.22C32.6699 166.22 32.9799 166.26 33.2899 166.27" fill="white"/>
<mask id="mask25_1427_486" style="mask-type:luminance" maskUnits="userSpaceOnUse" x="0" y="115" width="43" height="52">
<path d="M33.2899 166.26H33.2999C38.3899 166.26 42.5199 162.13 42.5199 157.04C42.5199 156.91 42.5199 156.79 42.5199 156.67C41.2099 156.87 39.8799 157 38.5299 157.06C37.7599 157.09 36.9799 157.1 36.2199 157.08C35.6899 157.07 35.1599 157.04 34.6399 157.01C34.3999 156.99 34.1699 156.97 33.9299 156.95C33.6499 156.93 33.3699 156.91 33.0899 156.87C32.7699 156.84 32.4599 156.79 32.1399 156.75C31.9499 156.73 31.7599 156.7 31.5699 156.67C31.1999 156.61 30.8399 156.55 30.4699 156.48C30.3399 156.46 30.2099 156.44 30.0799 156.41C29.6699 156.33 29.2699 156.24 28.8599 156.15L28.6099 156.09C28.1699 155.99 27.7399 155.87 27.3099 155.75L27.1799 155.71C26.7199 155.58 26.2699 155.44 25.8099 155.3H25.7599C25.2899 155.13 24.8199 154.97 24.3599 154.8C20.0299 153.19 16.0099 150.74 12.4999 147.51C2.4199 138.25 0.789902 128.28 0.149902 115.34C0.149902 115.67 0.199902 127.64 0.199902 130.26C0.199902 130.75 0.179902 131.24 0.199902 131.73C0.599902 141.39 4.5799 150.32 11.6899 156.87C16.4699 161.27 22.1999 164.23 28.3799 165.59C29.3799 165.81 31.0999 166.21 32.3599 166.22C32.6699 166.22 32.9799 166.26 33.2899 166.27" fill="white"/>
</mask>
<g mask="url(#mask25_1427_486)">
<path d="M42.5199 115.34H0.149902V166.27H42.5199V115.34Z" fill="white"/>
</g>
<path fill-rule="evenodd" clip-rule="evenodd" d="M79.3901 112.62C84.0901 112.43 88.5901 114.09 92.0601 117.28C95.5201 120.47 97.5401 124.81 97.7401 129.52C97.7401 129.76 97.7501 130.01 97.7601 130.25V162.36C97.9701 171.76 94.5901 180.71 88.2101 187.65C83.8201 192.42 78.3501 195.86 72.3101 197.72C75.3301 198.38 78.4601 198.66 81.6301 198.53C91.2901 198.13 100.22 193.99 106.77 186.87C111.17 182.09 114.13 176.36 115.49 170.18C116.05 167.64 116.33 165.01 116.33 162.35V138.07L112.38 130.48C110.85 127.93 109.06 124.87 106.91 122.72C106.57 122.38 106.22 122.04 105.87 121.72C99.1301 115.52 90.0501 112.56 80.9501 112.56C80.4401 112.56 79.9201 112.61 79.4101 112.63V112.61L79.3901 112.62Z" fill="white"/>
<mask id="mask26_1427_486" style="mask-type:luminance" maskUnits="userSpaceOnUse" x="72" y="112" width="45" height="87">
<path d="M79.3901 112.62C84.0901 112.43 88.5901 114.09 92.0601 117.28C95.5201 120.47 97.5401 124.81 97.7401 129.52C97.7401 129.76 97.7501 130.01 97.7601 130.25V162.36C97.9701 171.76 94.5901 180.71 88.2101 187.65C83.8201 192.42 78.3501 195.86 72.3101 197.72C75.3301 198.38 78.4601 198.66 81.6301 198.53C91.2901 198.13 100.22 193.99 106.77 186.87C111.17 182.09 114.13 176.36 115.49 170.18C116.05 167.64 116.33 165.01 116.33 162.35V138.07L112.38 130.48C110.85 127.93 109.06 124.87 106.91 122.72C106.57 122.38 106.22 122.04 105.87 121.72C99.1301 115.52 90.0501 112.56 80.9501 112.56C80.4401 112.56 79.9201 112.61 79.4101 112.63V112.61L79.3901 112.62Z" fill="white"/>
</mask>
<g mask="url(#mask26_1427_486)">
<path d="M116.32 112.42H72.29V198.66H116.32V112.42Z" fill="white"/>
</g>
<path fill-rule="evenodd" clip-rule="evenodd" d="M72.5998 103.91C72.2598 104.25 71.9198 104.6 71.5998 104.96C65.2198 111.9 62.0898 120.85 62.2898 130.25H62.4798C62.4798 125.81 64.1298 121.6 67.1498 118.32C70.3398 114.86 74.6798 112.84 79.3898 112.64C89.0498 112.24 98.2898 115.62 105.41 122.17C108.02 124.57 110.22 127.29 111.99 130.25C113.46 132.71 116.32 139.35 116.32 139.35C116.32 139.35 116.32 132.91 116.32 130.25C116.32 129.75 116.32 129.25 116.29 128.75C115.89 119.09 111.75 110.16 104.63 103.61C99.8598 99.2099 94.0498 96.2299 87.8698 94.8799C82.2798 96.6099 76.8098 99.6899 72.5898 103.92" fill="white"/>
<mask id="mask27_1427_486" style="mask-type:luminance" maskUnits="userSpaceOnUse" x="62" y="94" width="55" height="46">
<path d="M72.5998 103.91C72.2598 104.25 71.9198 104.6 71.5998 104.96C65.2198 111.9 62.0898 120.85 62.2898 130.25H62.4798C62.4798 125.81 64.1298 121.6 67.1498 118.32C70.3398 114.86 74.6798 112.84 79.3898 112.64C89.0498 112.24 98.2898 115.62 105.41 122.17C108.02 124.57 110.22 127.29 111.99 130.25C113.46 132.71 116.32 139.35 116.32 139.35C116.32 139.35 116.32 132.91 116.32 130.25C116.32 129.75 116.32 129.25 116.29 128.75C115.89 119.09 111.75 110.16 104.63 103.61C99.8598 99.2099 94.0498 96.2299 87.8698 94.8799C82.2798 96.6099 76.8098 99.6899 72.5898 103.92" fill="white"/>
</mask>
<g mask="url(#mask27_1427_486)">
<path d="M116.33 94.8701H62.0898V139.35H116.33V94.8701Z" fill="white"/>
</g>
<path fill-rule="evenodd" clip-rule="evenodd" d="M131.41 166.47C141.81 166.47 150.24 158.04 150.24 147.64V144.31V112.87C150.24 102.47 141.81 94.04 131.41 94.04V166.47Z" fill="white"/>
<mask id="mask28_1427_486" style="mask-type:luminance" maskUnits="userSpaceOnUse" x="131" y="94" width="20" height="73">
<path d="M131.41 166.47C141.81 166.47 150.24 158.04 150.24 147.64V144.31V112.87C150.24 102.47 141.81 94.04 131.41 94.04V166.47Z" fill="white"/>
</mask>
<g mask="url(#mask28_1427_486)">
<path d="M150.25 94.04H131.41V166.47H150.25V94.04Z" fill="white"/>
</g>
<path fill-rule="evenodd" clip-rule="evenodd" d="M212.41 50.22C212.41 53.44 212.14 56.66 211.61 59.86L205.91 93.7C205.06 98.78 210.9 102.25 214.95 99.06L275.53 51.35C280.98 47.05 281.76 39.65 278.49 34.29C260.43 46.9 242.46 50.95 220.68 50.67C217.9 50.64 215.14 50.48 212.41 50.22Z" fill="white"/>
<mask id="mask29_1427_486" style="mask-type:luminance" maskUnits="userSpaceOnUse" x="205" y="34" width="76" height="67">
<path d="M212.41 50.22C212.41 53.44 212.14 56.66 211.61 59.86L205.91 93.7C205.06 98.78 210.9 102.25 214.95 99.06L275.53 51.35C280.98 47.05 281.76 39.65 278.49 34.29C260.43 46.9 242.46 50.95 220.68 50.67C217.9 50.64 215.14 50.48 212.41 50.22Z" fill="white"/>
</mask>
<g mask="url(#mask29_1427_486)">
<path d="M281.77 34.2803H205.06V102.23H281.77V34.2803Z" fill="white"/>
</g>
<path fill-rule="evenodd" clip-rule="evenodd" d="M212.38 48.4701C212.46 52.1201 212.19 56.2201 211.58 59.8501L209.61 71.8301C210.11 72.8301 210.72 73.7801 211.47 74.6601C214.16 77.8401 218.07 79.5501 222.2 79.6801C236.43 80.1501 261.65 58.6801 261.65 58.6801L273.81 49.1001C279.91 44.3001 281.45 37.1701 277.1 32.3101C274.62 33.9901 272.05 35.5701 269.35 37.0301C259.47 42.3901 255.2 43.1501 245.24 46.0001C235.79 48.6901 223.58 49.1501 212.38 48.4701Z" fill="white"/>
<mask id="mask30_1427_486" style="mask-type:luminance" maskUnits="userSpaceOnUse" x="209" y="32" width="71" height="48">
<path d="M212.38 48.4701C212.46 52.1201 212.19 56.2201 211.58 59.8501L209.61 71.8301C210.11 72.8301 210.72 73.7801 211.47 74.6601C214.16 77.8401 218.07 79.5501 222.2 79.6801C236.43 80.1501 261.65 58.6801 261.65 58.6801L273.81 49.1001C279.91 44.3001 281.45 37.1701 277.1 32.3101C274.62 33.9901 272.05 35.5701 269.35 37.0301C259.47 42.3901 255.2 43.1501 245.24 46.0001C235.79 48.6901 223.58 49.1501 212.38 48.4701Z" fill="white"/>
</mask>
<g mask="url(#mask30_1427_486)">
<path d="M281.46 32.3101H209.62V80.1501H281.46V32.3101Z" fill="white"/>
</g>
<path fill-rule="evenodd" clip-rule="evenodd" d="M204.44 17.3L209.3 31.52C211.17 36.98 212.2 42.7 212.38 48.46V48.51C212.67 50.96 215.62 67.47 247.13 57.71C265.77 51.94 283.25 42.11 277.48 32.74C276.48 31.55 275.25 30.5 273.77 29.69L223.08 1.67C220.99 0.52 218.84 0 216.76 0C208.46 0 201.36 8.27 204.44 17.3Z" fill="white"/>
<mask id="mask31_1427_486" style="mask-type:luminance" maskUnits="userSpaceOnUse" x="203" y="0" width="76" height="61">
<path d="M204.44 17.3L209.3 31.52C211.17 36.98 212.2 42.7 212.38 48.46V48.51C212.67 50.96 215.62 67.47 247.13 57.71C265.77 51.94 283.25 42.11 277.48 32.74C276.48 31.55 275.25 30.5 273.77 29.69L223.08 1.67C220.99 0.52 218.84 0 216.76 0C208.46 0 201.36 8.27 204.44 17.3Z" fill="white"/>
</mask>
<g mask="url(#mask31_1427_486)">
<path d="M283.25 0H201.36V67.47H283.25V0Z" fill="white"/>
</g>
<path fill-rule="evenodd" clip-rule="evenodd" d="M204.44 17.3C229.93 58.47 283.4 41.88 273.77 29.69L223.08 1.67C220.99 0.51 218.84 0 216.76 0C208.46 0 201.36 8.27 204.44 17.3Z" fill="white"/>
<mask id="mask32_1427_486" style="mask-type:luminance" maskUnits="userSpaceOnUse" x="203" y="0" width="72" height="44">
<path d="M204.44 17.3C229.93 58.47 283.4 41.88 273.77 29.69L223.08 1.67C220.99 0.51 218.84 0 216.76 0C208.46 0 201.36 8.27 204.44 17.3Z" fill="white"/>
</mask>
<g mask="url(#mask32_1427_486)">
<path d="M283.41 0H201.36V58.47H283.41V0Z" fill="white"/>
</g>
<path fill-rule="evenodd" clip-rule="evenodd" d="M339.8 190.94C339.8 196.17 341.64 196.67 344.54 196.67C347.44 196.67 349.28 196.01 349.28 190.94C349.28 185.56 347.33 185.04 344.54 185.04C341.75 185.04 339.8 185.56 339.8 190.94ZM342.06 190.94C342.06 187.28 342.8 187.06 344.54 187.06C346.28 187.06 347.02 187.36 347.02 190.94C347.02 194.03 346.44 194.64 344.54 194.64C342.53 194.64 342.06 194.07 342.06 190.94ZM322.31 196.6H324.73L325.58 194.06H329.45L330.29 196.6H332.69L328.85 185.11H326.29L322.31 196.6ZM326.17 192.11L327.59 188L328.91 192.11H326.17ZM324.8 183.23L325.19 184.09C325.74 183.79 326.04 183.54 326.7 183.54C327.31 183.54 327.72 184.06 328.51 184.09C329.27 184.09 329.9 183.48 330.33 183.02L329.94 182.08C329.52 182.39 328.99 182.71 328.46 182.68C327.9 182.68 327.49 182.16 326.75 182.13C325.94 182.13 325.32 182.68 324.8 183.23ZM306.66 190.83C306.66 194.47 307.69 196.67 310.67 196.7C312.36 196.73 313.72 196.59 314.78 196.26V194.55C314.78 194.55 312.89 194.68 311.2 194.68C309.35 194.68 308.91 193.44 308.91 190.87C308.91 187.39 309.54 187.02 311.2 187.02C312.86 187.02 314.76 187.24 314.78 187.24V185.51C313.51 185.15 312.31 184.99 310.67 184.99C307.46 184.99 306.66 187.16 306.66 190.83ZM307.82 198.45V199.39H308.72C310.12 199.39 310.53 198.78 310.53 197.18H309.02C309.02 197.78 308.99 198.03 308.54 198.22L307.83 198.46L307.82 198.45ZM289.7 191.58C289.7 196.81 292.05 196.68 294.24 196.68C296.19 196.68 298.7 196.65 298.7 191.58V185.11H296.43V191.58C296.43 194.12 295.74 194.66 294.24 194.66C292.55 194.66 291.95 194.2 291.95 191.58V185.11H289.69V191.58H289.7ZM275.01 194.37C275.01 196.13 276.19 196.6 277.46 196.6H282.31V194.58H278.26C277.79 194.58 277.26 194.6 277.26 193.76V185.11H275V194.37H275.01ZM257.45 190.94C257.45 196.17 259.29 196.67 262.19 196.67C265.09 196.67 266.93 196.01 266.93 190.94C266.93 185.56 264.98 185.04 262.19 185.04C259.4 185.04 257.45 185.56 257.45 190.94ZM259.71 190.94C259.71 187.28 260.45 187.06 262.19 187.06C263.93 187.06 264.67 187.36 264.67 190.94C264.67 194.03 264.09 194.64 262.19 194.64C260.18 194.64 259.71 194.07 259.71 190.94ZM240.23 185.11L243.94 196.6H246.55L250.43 185.11H248.03L245.26 193.71L242.63 185.11H240.23ZM224.91 194.34C224.91 196.46 226.59 196.69 227.63 196.65C227.63 196.65 231.74 196.51 232.66 196.38V194.57H228.16C227.69 194.57 227.16 194.59 227.16 193.75V191.96L231.93 191.82V190L227.16 189.84V188.05C227.16 187.63 227.16 187.17 228 187.17H232.66V185.35C231.63 185.21 227.47 185.1 227.47 185.1C226.36 185.08 224.91 185.49 224.91 187.49V194.33V194.34ZM198.22 196.6H200.64L201.49 194.06H205.36L206.2 196.6H208.6L204.76 185.11H202.2L198.22 196.6ZM202.09 192.11L203.51 188L204.83 192.11H202.09ZM171.92 196.6H174.34L175.19 194.06H179.06L179.9 196.6H182.3L178.46 185.11H175.9L171.92 196.6ZM175.79 192.11L177.21 188L178.53 192.11H175.79ZM156.57 185.11L160.28 196.6H162.89L166.77 185.11H164.37L161.6 193.71L158.97 185.11H156.57ZM146.48 196.6H148.74V185.11H146.48V196.6ZM128.44 185.11L132.15 196.6H134.76L138.64 185.11H136.24L133.47 193.71L130.84 185.11H128.44Z" fill="white"/>
<mask id="mask33_1427_486" style="mask-type:luminance" maskUnits="userSpaceOnUse" x="128" y="182" width="222" height="18">
<path d="M339.8 190.94C339.8 196.17 341.64 196.67 344.54 196.67C347.44 196.67 349.28 196.01 349.28 190.94C349.28 185.56 347.33 185.04 344.54 185.04C341.75 185.04 339.8 185.56 339.8 190.94ZM342.06 190.94C342.06 187.28 342.8 187.06 344.54 187.06C346.28 187.06 347.02 187.36 347.02 190.94C347.02 194.03 346.44 194.64 344.54 194.64C342.53 194.64 342.06 194.07 342.06 190.94ZM322.31 196.6H324.73L325.58 194.06H329.45L330.29 196.6H332.69L328.85 185.11H326.29L322.31 196.6ZM326.17 192.11L327.59 188L328.91 192.11H326.17ZM324.8 183.23L325.19 184.09C325.74 183.79 326.04 183.54 326.7 183.54C327.31 183.54 327.72 184.06 328.51 184.09C329.27 184.09 329.9 183.48 330.33 183.02L329.94 182.08C329.52 182.39 328.99 182.71 328.46 182.68C327.9 182.68 327.49 182.16 326.75 182.13C325.94 182.13 325.32 182.68 324.8 183.23ZM306.66 190.83C306.66 194.47 307.69 196.67 310.67 196.7C312.36 196.73 313.72 196.59 314.78 196.26V194.55C314.78 194.55 312.89 194.68 311.2 194.68C309.35 194.68 308.91 193.44 308.91 190.87C308.91 187.39 309.54 187.02 311.2 187.02C312.86 187.02 314.76 187.24 314.78 187.24V185.51C313.51 185.15 312.31 184.99 310.67 184.99C307.46 184.99 306.66 187.16 306.66 190.83ZM307.82 198.45V199.39H308.72C310.12 199.39 310.53 198.78 310.53 197.18H309.02C309.02 197.78 308.99 198.03 308.54 198.22L307.83 198.46L307.82 198.45ZM289.7 191.58C289.7 196.81 292.05 196.68 294.24 196.68C296.19 196.68 298.7 196.65 298.7 191.58V185.11H296.43V191.58C296.43 194.12 295.74 194.66 294.24 194.66C292.55 194.66 291.95 194.2 291.95 191.58V185.11H289.69V191.58H289.7ZM275.01 194.37C275.01 196.13 276.19 196.6 277.46 196.6H282.31V194.58H278.26C277.79 194.58 277.26 194.6 277.26 193.76V185.11H275V194.37H275.01ZM257.45 190.94C257.45 196.17 259.29 196.67 262.19 196.67C265.09 196.67 266.93 196.01 266.93 190.94C266.93 185.56 264.98 185.04 262.19 185.04C259.4 185.04 257.45 185.56 257.45 190.94ZM259.71 190.94C259.71 187.28 260.45 187.06 262.19 187.06C263.93 187.06 264.67 187.36 264.67 190.94C264.67 194.03 264.09 194.64 262.19 194.64C260.18 194.64 259.71 194.07 259.71 190.94ZM240.23 185.11L243.94 196.6H246.55L250.43 185.11H248.03L245.26 193.71L242.63 185.11H240.23ZM224.91 194.34C224.91 196.46 226.59 196.69 227.63 196.65C227.63 196.65 231.74 196.51 232.66 196.38V194.57H228.16C227.69 194.57 227.16 194.59 227.16 193.75V191.96L231.93 191.82V190L227.16 189.84V188.05C227.16 187.63 227.16 187.17 228 187.17H232.66V185.35C231.63 185.21 227.47 185.1 227.47 185.1C226.36 185.08 224.91 185.49 224.91 187.49V194.33V194.34ZM198.22 196.6H200.64L201.49 194.06H205.36L206.2 196.6H208.6L204.76 185.11H202.2L198.22 196.6ZM202.09 192.11L203.51 188L204.83 192.11H202.09ZM171.92 196.6H174.34L175.19 194.06H179.06L179.9 196.6H182.3L178.46 185.11H175.9L171.92 196.6ZM175.79 192.11L177.21 188L178.53 192.11H175.79ZM156.57 185.11L160.28 196.6H162.89L166.77 185.11H164.37L161.6 193.71L158.97 185.11H156.57ZM146.48 196.6H148.74V185.11H146.48V196.6ZM128.44 185.11L132.15 196.6H134.76L138.64 185.11H136.24L133.47 193.71L130.84 185.11H128.44Z" fill="white"/>
</mask>
<g mask="url(#mask33_1427_486)">
<path d="M349.28 182.08H128.44V199.39H349.28V182.08Z" fill="white"/>
</g>
</svg>
