<svg width="348" height="199" viewBox="0 0 348 199" fill="none" xmlns="http://www.w3.org/2000/svg">
<path fill-rule="evenodd" clip-rule="evenodd" d="M304.91 72.55L305.11 130.2L309.25 131.23C310.78 133.78 312.63 136.16 314.79 138.3C315.13 138.64 315.47 138.98 315.83 139.31C322.22 145.19 330.33 147.72 338.92 148.05L339.23 147.82C335.61 147.37 331.92 145.69 329.18 143.17C325.72 139.98 323.7 135.64 323.51 130.94C323.5 130.69 323.49 130.45 323.49 130.21V91.14C323.49 80.88 315.18 72.56 304.92 72.56" fill="#FFC200"/>
<mask id="mask0_521_2" style="mask-type:luminance" maskUnits="userSpaceOnUse" x="304" y="72" width="36" height="77">
<path d="M304.91 72.55L305.11 130.2L309.25 131.23C310.78 133.78 312.63 136.16 314.79 138.3C315.13 138.64 315.47 138.98 315.83 139.31C322.22 145.19 330.33 147.72 338.92 148.05L339.23 147.82C335.61 147.37 331.92 145.69 329.18 143.17C325.72 139.98 323.7 135.64 323.51 130.94C323.5 130.69 323.49 130.45 323.49 130.21V91.14C323.49 80.88 315.18 72.56 304.92 72.56" fill="white"/>
</mask>
<g mask="url(#mask0_521_2)">
<path d="M339.23 72.55H304.91V148.04H339.23V72.55Z" fill="#FFC200"/>
</g>
<path fill-rule="evenodd" clip-rule="evenodd" d="M305.21 112.52L328.9 112.56H328.93C329.02 112.56 329.1 112.56 329.19 112.56C329.99 112.53 332.13 112.38 334.52 111.69C342.01 109.29 347.44 102.28 347.44 94L305.14 93.95L305.22 112.53L305.21 112.52Z" fill="#FFC200"/>
<path fill-rule="evenodd" clip-rule="evenodd" d="M306.42 128.51C306.58 129.11 306.75 129.67 306.93 130.19C306.75 129.76 306.58 129.19 306.42 128.51ZM347.43 156.99V156.97C347.43 156.85 347.43 156.74 347.42 156.62C347.27 152.71 344.68 149.41 341.12 148.23C340.34 147.97 339.52 147.81 338.67 147.77C330.18 147.39 322.16 144.07 315.83 138.24C313.24 135.85 311.04 133.14 309.27 130.2H309.25C306.47 126.32 305.06 114.91 305.06 114.91C305.13 119.55 305.1 118.96 305.11 130.2C305.11 130.69 305.09 131.18 305.11 131.67C305.51 141.33 309.49 150.26 316.61 156.81C321.38 161.21 327.12 164.17 333.29 165.53C334.29 165.75 336.01 166.15 337.27 166.16C337.58 166.16 337.89 166.21 338.21 166.21C343.3 166.21 347.43 162.08 347.43 156.99Z" fill="#FFC200"/>
<mask id="mask1_521_2" style="mask-type:luminance" maskUnits="userSpaceOnUse" x="305" y="114" width="43" height="53">
<path d="M306.42 128.51C306.58 129.11 306.75 129.67 306.93 130.19C306.75 129.76 306.58 129.19 306.42 128.51ZM347.43 156.99V156.97C347.43 156.85 347.43 156.74 347.42 156.62C347.27 152.71 344.68 149.41 341.12 148.23C340.34 147.97 339.52 147.81 338.67 147.77C330.18 147.39 322.16 144.07 315.83 138.24C313.24 135.85 311.04 133.14 309.27 130.2H309.25C306.47 126.32 305.06 114.91 305.06 114.91C305.13 119.55 305.1 118.96 305.11 130.2C305.11 130.69 305.09 131.18 305.11 131.67C305.51 141.33 309.49 150.26 316.61 156.81C321.38 161.21 327.12 164.17 333.29 165.53C334.29 165.75 336.01 166.15 337.27 166.16C337.58 166.16 337.89 166.21 338.21 166.21C343.3 166.21 347.43 162.08 347.43 156.99Z" fill="white"/>
</mask>
<g mask="url(#mask1_521_2)">
<path d="M347.43 114.91H305.06V166.21H347.43V114.91Z" fill="#FFC200"/>
</g>
<path fill-rule="evenodd" clip-rule="evenodd" d="M239.34 128.86V128.99C239.34 129.41 239.38 129.72 239.44 130.14H239.47C239.47 129.74 239.5 129.31 239.53 128.9C239.84 124.37 242.1 120.21 245.57 117.08C248.22 114.68 251.58 113.15 255.13 112.72C257.62 112.41 260.07 112.63 262.37 113.3C266.17 114.41 269.59 117.05 270.49 117.95C271.38 118.84 272.92 118.73 274.26 118.73C279.47 118.73 283.69 114.5 283.69 109.29C283.69 107.71 283.3 106.22 282.62 104.91C282.55 104.78 282.48 104.65 282.4 104.52C282.13 104.05 281.81 103.61 281.46 103.19C280.58 102.4 279.66 101.66 278.72 100.97C274.78 98.07 269.97 95.96 265.24 94.85C265.08 94.81 264.91 94.78 264.75 94.75C259.16 96.48 254.05 99.65 249.84 103.88C249.5 104.22 249.17 104.57 248.84 104.92C243.02 111.25 239.78 119.16 239.4 127.65C239.38 128.05 239.34 128.45 239.33 128.85L239.34 128.86Z" fill="#FFC200"/>
<mask id="mask2_521_2" style="mask-type:luminance" maskUnits="userSpaceOnUse" x="239" y="94" width="45" height="37">
<path d="M239.34 128.86V128.99C239.34 129.41 239.38 129.72 239.44 130.14H239.47C239.47 129.74 239.5 129.31 239.53 128.9C239.84 124.37 242.1 120.21 245.57 117.08C248.22 114.68 251.58 113.15 255.13 112.72C257.62 112.41 260.07 112.63 262.37 113.3C266.17 114.41 269.59 117.05 270.49 117.95C271.38 118.84 272.92 118.73 274.26 118.73C279.47 118.73 283.69 114.5 283.69 109.29C283.69 107.71 283.3 106.22 282.62 104.91C282.55 104.78 282.48 104.65 282.4 104.52C282.13 104.05 281.81 103.61 281.46 103.19C280.58 102.4 279.66 101.66 278.72 100.97C274.78 98.07 269.97 95.96 265.24 94.85C265.08 94.81 264.91 94.78 264.75 94.75C259.16 96.48 254.05 99.65 249.84 103.88C249.5 104.22 249.17 104.57 248.84 104.92C243.02 111.25 239.78 119.16 239.4 127.65C239.38 128.05 239.34 128.45 239.33 128.85L239.34 128.86Z" fill="white"/>
</mask>
<g mask="url(#mask2_521_2)">
<path d="M239.34 130.14H283.46L283.7 94.76H239.58L239.34 130.14Z" fill="#FFC200"/>
</g>
<path fill-rule="evenodd" clip-rule="evenodd" d="M258.74 116.7C250.03 122.11 247.35 133.57 252.77 142.28L289.53 119.45H289.54C290.75 118.47 291.15 116.79 290.52 115.38C289.64 113.41 288.6 111.54 287.4 109.78C285.63 107.18 283.35 104.83 280.99 102.77L258.75 116.7H258.74Z" fill="#FFC200"/>
<mask id="mask3_521_2" style="mask-type:luminance" maskUnits="userSpaceOnUse" x="249" y="102" width="42" height="41">
<path d="M258.74 116.7C250.03 122.11 247.35 133.57 252.77 142.28L289.53 119.45H289.54C290.75 118.47 291.15 116.79 290.52 115.38C289.64 113.41 288.6 111.54 287.4 109.78C285.63 107.18 283.35 104.83 280.99 102.77L258.75 116.7H258.74Z" fill="white"/>
</mask>
<g mask="url(#mask3_521_2)">
<path d="M291.15 102.77H247.36V142.28H291.15V102.77Z" fill="#FFC200"/>
</g>
<path fill-rule="evenodd" clip-rule="evenodd" d="M257.21 93.94H257.11C256.63 93.94 256.15 93.95 255.67 93.97C246.01 94.37 237.08 98.51 230.53 105.63C226.14 110.4 223.17 116.14 221.81 122.31V122.33C223.54 127.92 226.61 133.02 230.84 137.22C231.18 137.56 231.53 137.9 231.88 138.23C238.98 144.76 248.18 148.14 257.81 147.77C253.14 147.94 248.68 146.29 245.24 143.13C241.78 139.94 239.76 135.6 239.56 130.89C239.16 121.23 242.74 112.01 249.29 104.9C253.68 100.13 259 96.69 265.03 94.83H265.06C262.53 94.28 259.84 93.96 257.21 93.96V93.94Z" fill="#FFC200"/>
<mask id="mask4_521_2" style="mask-type:luminance" maskUnits="userSpaceOnUse" x="221" y="93" width="45" height="55">
<path d="M257.21 93.94H257.11C256.63 93.94 256.15 93.95 255.67 93.97C246.01 94.37 237.08 98.51 230.53 105.63C226.14 110.4 223.17 116.14 221.81 122.31V122.33C223.54 127.92 226.61 133.02 230.84 137.22C231.18 137.56 231.53 137.9 231.88 138.23C238.98 144.76 248.18 148.14 257.81 147.77C253.14 147.94 248.68 146.29 245.24 143.13C241.78 139.94 239.76 135.6 239.56 130.89C239.16 121.23 242.74 112.01 249.29 104.9C253.68 100.13 259 96.69 265.03 94.83H265.06C262.53 94.28 259.84 93.96 257.21 93.96V93.94Z" fill="white"/>
</mask>
<g mask="url(#mask4_521_2)">
<path d="M265.23 93.99H221.98V148.18H265.23V93.99Z" fill="#FFC200"/>
</g>
<path fill-rule="evenodd" clip-rule="evenodd" d="M168.14 93.92H168.02C167.55 93.92 167.07 93.93 166.6 93.95C156.8 94.36 147.75 98.56 141.11 105.77C136.65 110.61 132.79 116.43 131.42 122.69C132.28 125.47 134.32 128.14 135.81 130.63H150.22L150.25 130.68C150.25 126.18 151.91 121.86 154.98 118.53C158.21 115.02 162.62 112.98 167.39 112.77C177.19 112.36 186.56 115.8 193.77 122.44C196.41 124.87 198.65 127.63 200.44 130.63C201.93 133.13 204.83 138.57 204.83 138.57C204.83 138.57 204.83 133.33 204.83 130.63C204.83 130.12 204.83 129.62 204.8 129.11C204.39 119.31 200.19 110.26 192.98 103.62C188.14 99.17 182.32 96.15 176.06 94.78C173.52 94.22 170.91 93.93 168.26 93.92H168.14Z" fill="#FFC200"/>
<mask id="mask5_521_2" style="mask-type:luminance" maskUnits="userSpaceOnUse" x="131" y="93" width="74" height="46">
<path d="M168.14 93.92H168.02C167.55 93.92 167.07 93.93 166.6 93.95C156.8 94.36 147.75 98.56 141.11 105.77C136.65 110.61 132.79 116.43 131.42 122.69C132.28 125.47 134.32 128.14 135.81 130.63H150.22L150.25 130.68C150.25 126.18 151.91 121.86 154.98 118.53C158.21 115.02 162.62 112.98 167.39 112.77C177.19 112.36 186.56 115.8 193.77 122.44C196.41 124.87 198.65 127.63 200.44 130.63C201.93 133.13 204.83 138.57 204.83 138.57C204.83 138.57 204.83 133.33 204.83 130.63C204.83 130.12 204.83 129.62 204.8 129.11C204.39 119.31 200.19 110.26 192.98 103.62C188.14 99.17 182.32 96.15 176.06 94.78C173.52 94.22 170.91 93.93 168.26 93.92H168.14Z" fill="white"/>
</mask>
<g mask="url(#mask5_521_2)">
<path d="M204.83 93.92H131.41V138.57H204.83V93.92Z" fill="#FFC200"/>
</g>
<path fill-rule="evenodd" clip-rule="evenodd" d="M204.83 166.47V138.57L200.44 130.63C198.89 128.04 197.01 125.63 194.82 123.46C194.47 123.12 194.12 122.78 193.76 122.44C186.93 116.15 178.17 112.74 168.94 112.74C168.45 112.74 167.96 112.74 167.47 112.77C172.2 112.6 176.73 114.27 180.21 117.48C183.72 120.71 185.77 125.12 185.97 129.89C185.98 130.14 185.99 130.38 185.99 130.63V147.64C185.99 158.04 194.42 166.47 204.82 166.47H204.83Z" fill="#FFC200"/>
<mask id="mask6_521_2" style="mask-type:luminance" maskUnits="userSpaceOnUse" x="167" y="112" width="38" height="55">
<path d="M204.83 166.47V138.57L200.44 130.63C198.89 128.04 197.01 125.63 194.82 123.46C194.47 123.12 194.12 122.78 193.76 122.44C186.93 116.15 178.17 112.74 168.94 112.74C168.45 112.74 167.96 112.74 167.47 112.77C172.2 112.6 176.73 114.27 180.21 117.48C183.72 120.71 185.77 125.12 185.97 129.89C185.98 130.14 185.99 130.38 185.99 130.63V147.64C185.99 158.04 194.42 166.47 204.82 166.47H204.83Z" fill="white"/>
</mask>
<g mask="url(#mask6_521_2)">
<path d="M204.83 112.6H167.38V166.47H204.83V112.6Z" fill="#FFC200"/>
</g>
<path fill-rule="evenodd" clip-rule="evenodd" d="M102.08 159.28V159.14C102.07 159.56 102.04 160.11 102.01 160.52H102.04L102.09 160.55C102.09 160.13 102.09 159.7 102.08 159.28Z" fill="#FFC200"/>
<path fill-rule="evenodd" clip-rule="evenodd" d="M91.88 175.48C89.23 177.88 85.87 179.41 82.33 179.85C79.84 180.16 77.39 179.94 75.09 179.27C71.29 178.16 67.97 175.26 67.31 174.86C66.19 174.19 64.54 173.83 63.2 173.83C57.99 173.83 53.76 178.05 53.76 183.27C53.76 184.85 54.15 186.34 54.84 187.65C54.91 187.78 54.98 187.91 55.06 188.04C55.33 188.51 55.65 188.95 56 189.37C56.88 190.16 57.8 190.9 58.74 191.59C62.81 194.58 67.75 196.76 72.63 197.83C87.16 193.35 97.11 180.03 97.8 164.85C97.82 164.45 97.84 164.04 97.84 163.63L97.69 163.61C97.38 168.14 95.35 172.36 91.88 175.49" fill="#FFC200"/>
<mask id="mask7_521_2" style="mask-type:luminance" maskUnits="userSpaceOnUse" x="53" y="163" width="45" height="35">
<path d="M91.88 175.48C89.23 177.88 85.87 179.41 82.33 179.85C79.84 180.16 77.39 179.94 75.09 179.27C71.29 178.16 67.97 175.26 67.31 174.86C66.19 174.19 64.54 173.83 63.2 173.83C57.99 173.83 53.76 178.05 53.76 183.27C53.76 184.85 54.15 186.34 54.84 187.65C54.91 187.78 54.98 187.91 55.06 188.04C55.33 188.51 55.65 188.95 56 189.37C56.88 190.16 57.8 190.9 58.74 191.59C62.81 194.58 67.75 196.76 72.63 197.83C87.16 193.35 97.11 180.03 97.8 164.85C97.82 164.45 97.84 164.04 97.84 163.63L97.69 163.61C97.38 168.14 95.35 172.36 91.88 175.49" fill="white"/>
</mask>
<g mask="url(#mask7_521_2)">
<path d="M97.84 163.59H53.76V197.81H97.84V163.59Z" fill="#FFC200"/>
</g>
<path fill-rule="evenodd" clip-rule="evenodd" d="M80.14 94.04H80.02C79.55 94.04 79.09 94.05 78.61 94.07C68.95 94.47 60.02 98.61 53.47 105.73C49.08 110.51 46.11 116.24 44.75 122.42C45.59 125.16 46.77 127.79 48.24 130.25C49.77 132.8 51.62 135.18 53.78 137.33C54.12 137.67 54.47 138 54.82 138.33C61.94 144.88 71.18 148.26 80.84 147.86C76.14 148.05 71.64 146.41 68.17 143.22C64.71 140.03 62.69 135.69 62.49 130.98C62.49 130.74 62.47 130.49 62.47 130.25C62.26 120.85 65.64 111.9 72.02 104.96C76.42 100.18 81.88 96.75 87.93 94.88H87.92C85.42 94.33 82.85 94.04 80.24 94.03H80.12L80.14 94.04Z" fill="#FFC200"/>
<mask id="mask8_521_2" style="mask-type:luminance" maskUnits="userSpaceOnUse" x="44" y="94" width="44" height="54">
<path d="M80.14 94.04H80.02C79.55 94.04 79.09 94.05 78.61 94.07C68.95 94.47 60.02 98.61 53.47 105.73C49.08 110.51 46.11 116.24 44.75 122.42C45.59 125.16 46.77 127.79 48.24 130.25C49.77 132.8 51.62 135.18 53.78 137.33C54.12 137.67 54.47 138 54.82 138.33C61.94 144.88 71.18 148.26 80.84 147.86C76.14 148.05 71.64 146.41 68.17 143.22C64.71 140.03 62.69 135.69 62.49 130.98C62.49 130.74 62.47 130.49 62.47 130.25C62.26 120.85 65.64 111.9 72.02 104.96C76.42 100.18 81.88 96.75 87.93 94.88H87.92C85.42 94.33 82.85 94.04 80.24 94.03H80.12L80.14 94.04Z" fill="white"/>
</mask>
<g mask="url(#mask8_521_2)">
<path d="M87.95 94.04H44.76V148.26H87.95V94.04Z" fill="#FFC200"/>
</g>
<path fill-rule="evenodd" clip-rule="evenodd" d="M0.139893 114.95C0.259893 127.48 2.80989 138.61 12.4999 147.53C15.9999 150.75 20.0299 153.2 24.3599 154.82C28.1199 156.22 32.1099 157 36.2099 157.09C36.9799 157.11 37.7499 157.1 38.5199 157.07C39.8699 157.01 41.1999 156.88 42.5099 156.68C42.3499 152.77 39.7599 149.47 36.2099 148.29C35.4299 148.03 34.6099 147.87 33.7599 147.83C25.2699 147.45 17.2499 144.13 10.9199 138.3C8.31989 135.91 6.12989 133.2 4.35989 130.26H4.33989C1.53989 126.34 0.149893 114.96 0.149893 114.96" fill="#FFC200"/>
<mask id="mask9_521_2" style="mask-type:luminance" maskUnits="userSpaceOnUse" x="0" y="114" width="43" height="44">
<path d="M0.139893 114.95C0.259893 127.48 2.80989 138.61 12.4999 147.53C15.9999 150.75 20.0299 153.2 24.3599 154.82C28.1199 156.22 32.1099 157 36.2099 157.09C36.9799 157.11 37.7499 157.1 38.5199 157.07C39.8699 157.01 41.1999 156.88 42.5099 156.68C42.3499 152.77 39.7599 149.47 36.2099 148.29C35.4299 148.03 34.6099 147.87 33.7599 147.83C25.2699 147.45 17.2499 144.13 10.9199 138.3C8.31989 135.91 6.12989 133.2 4.35989 130.26H4.33989C1.53989 126.34 0.149893 114.96 0.149893 114.96" fill="white"/>
</mask>
<g mask="url(#mask9_521_2)">
<path d="M42.5099 114.95H0.139893V157.1H42.5099V114.95Z" fill="#FFC200"/>
</g>
<path fill-rule="evenodd" clip-rule="evenodd" d="M0 72.6C0 72.6 8.86 79.48 8.86 90.27V130.25C8.82 132.64 8.98 134.96 9.39 137.32C9.73 137.66 10.56 138 10.92 138.33C17.28 144.18 25.37 147.54 34.01 147.86L34.08 147.84C30.47 147.39 27.01 145.73 24.28 143.22C20.82 140.03 18.8 135.69 18.6 130.99C18.6 130.74 18.58 130.5 18.58 130.26V91.18C18.58 80.92 10.26 72.6 0.01 72.6H0Z" fill="#FFC200"/>
<mask id="mask10_521_2" style="mask-type:luminance" maskUnits="userSpaceOnUse" x="0" y="72" width="35" height="76">
<path d="M0 72.6C0 72.6 8.86 79.48 8.86 90.27V130.25C8.82 132.64 8.98 134.96 9.39 137.32C9.73 137.66 10.56 138 10.92 138.33C17.28 144.18 25.37 147.54 34.01 147.86L34.08 147.84C30.47 147.39 27.01 145.73 24.28 143.22C20.82 140.03 18.8 135.69 18.6 130.99C18.6 130.74 18.58 130.5 18.58 130.26V91.18C18.58 80.92 10.26 72.6 0.01 72.6H0Z" fill="white"/>
</mask>
<g mask="url(#mask10_521_2)">
<path d="M34.07 72.6H0V147.86H34.07V72.6Z" fill="#FFC200"/>
</g>
<path fill-rule="evenodd" clip-rule="evenodd" d="M0 72.6L0.2 130.25H4.33C5.86 132.8 7.71 135.18 9.87 137.32C9.6 135.76 9.43 134.17 9.36 132.57C9.33 131.79 9.32 131.02 9.34 130.25V90.27C9.34 79.49 0 72.6 0 72.6Z" fill="#FFC200"/>
<mask id="mask11_521_2" style="mask-type:luminance" maskUnits="userSpaceOnUse" x="0" y="72" width="10" height="66">
<path d="M0 72.6L0.2 130.25H4.33C5.86 132.8 7.71 135.18 9.87 137.32C9.6 135.76 9.43 134.17 9.36 132.57C9.33 131.79 9.32 131.02 9.34 130.25V90.27C9.34 79.49 0 72.6 0 72.6Z" fill="white"/>
</mask>
<g mask="url(#mask11_521_2)">
<path d="M9.87 72.6H0V137.32H9.87V72.6Z" fill="#FFC200"/>
</g>
<path fill-rule="evenodd" clip-rule="evenodd" d="M221.07 131.7C221.4 139.7 224.29 147.19 229.31 153.24C238.74 159.88 247.24 159.26 253.01 156.93C258.29 154.79 262.06 151.46 262.06 151.46L267.53 144.15C266.31 145.17 265.66 145.58 264.89 145.95C262.74 146.99 260.34 147.7 257.99 147.8C248.33 148.2 239.08 144.81 231.97 138.27C227.19 133.87 223.76 128.41 221.9 122.36C221.24 125.39 220.95 128.52 221.09 131.69" fill="#FFC200"/>
<mask id="mask12_521_2" style="mask-type:luminance" maskUnits="userSpaceOnUse" x="221" y="122" width="47" height="37">
<path d="M221.07 131.7C221.4 139.7 224.29 147.19 229.31 153.24C238.74 159.88 247.24 159.26 253.01 156.93C258.29 154.79 262.06 151.46 262.06 151.46L267.53 144.15C266.31 145.17 265.66 145.58 264.89 145.95C262.74 146.99 260.34 147.7 257.99 147.8C248.33 148.2 239.08 144.81 231.97 138.27C227.19 133.87 223.76 128.41 221.9 122.36C221.24 125.39 220.95 128.52 221.09 131.69" fill="white"/>
</mask>
<g mask="url(#mask12_521_2)">
<path d="M267.43 122.36H220.94V159.88H267.43V122.36Z" fill="#FFC200"/>
</g>
<path fill-rule="evenodd" clip-rule="evenodd" d="M188.18 126.85C188.19 127.1 188.19 127.34 188.19 127.59C188.19 127.34 188.18 127.1 188.17 126.85" fill="#FFC200"/>
<mask id="mask13_521_2" style="mask-type:luminance" maskUnits="userSpaceOnUse" x="188" y="126" width="1" height="2">
<path d="M188.18 126.85C188.19 127.1 188.19 127.34 188.19 127.59C188.19 127.34 188.18 127.1 188.17 126.85" fill="white"/>
</mask>
<g mask="url(#mask13_521_2)">
<path d="M188.2 126.85H188.18V127.59H188.2V126.85Z" fill="#FFC200"/>
</g>
<path fill-rule="evenodd" clip-rule="evenodd" d="M323.5 130.19H323.49C323.49 130.43 323.5 130.68 323.51 130.92C323.5 130.67 323.5 130.43 323.5 130.19Z" fill="#FFC200"/>
<mask id="mask14_521_2" style="mask-type:luminance" maskUnits="userSpaceOnUse" x="323" y="130" width="1" height="1">
<path d="M323.5 130.19H323.49C323.49 130.43 323.5 130.68 323.51 130.92C323.5 130.67 323.5 130.43 323.5 130.19Z" fill="white"/>
</mask>
<g mask="url(#mask14_521_2)">
<path d="M323.51 130.19H323.49V130.92H323.51V130.19Z" fill="#FFC200"/>
</g>
<path d="M339.61 109.17C339.48 109.27 339.35 109.37 339.21 109.47C339.36 109.36 339.5 109.26 339.61 109.17Z" fill="#FFC200"/>
<path d="M339.62 109.16C339.88 108.95 340.02 108.82 340.02 108.82C339.89 108.94 339.75 109.05 339.62 109.16Z" fill="#FFC200"/>
<path fill-rule="evenodd" clip-rule="evenodd" d="M267.52 144.15C266.76 144.93 261.32 151.16 261.32 151.16C261.32 151.16 258.15 154.54 252.87 156.68C247.11 159.01 238.83 159.87 229.4 153.23C230.45 154.49 231.59 155.7 232.82 156.83C237.6 161.23 243.33 164.19 249.51 165.55C252.53 166.22 255.66 166.49 258.83 166.36C266.8 166.03 274.27 163.14 280.32 158.15L280.52 157.95C282.63 156.22 283.68 153.7 283.68 150.75C283.68 147.02 281.52 143.81 278.39 142.27C277.14 141.66 275.73 141.31 274.25 141.31C271.61 141.31 269.22 142.39 267.51 144.14" fill="#FFC200"/>
<mask id="mask15_521_2" style="mask-type:luminance" maskUnits="userSpaceOnUse" x="229" y="141" width="55" height="26">
<path d="M267.52 144.15C266.76 144.93 261.32 151.16 261.32 151.16C261.32 151.16 258.15 154.54 252.87 156.68C247.11 159.01 238.83 159.87 229.4 153.23C230.45 154.49 231.59 155.7 232.82 156.83C237.6 161.23 243.33 164.19 249.51 165.55C252.53 166.22 255.66 166.49 258.83 166.36C266.8 166.03 274.27 163.14 280.32 158.15L280.52 157.95C282.63 156.22 283.68 153.7 283.68 150.75C283.68 147.02 281.52 143.81 278.39 142.27C277.14 141.66 275.73 141.31 274.25 141.31C271.61 141.31 269.22 142.39 267.51 144.14" fill="white"/>
</mask>
<g mask="url(#mask15_521_2)">
<path d="M283.7 141.32H229.41V166.5H283.7V141.32Z" fill="#FFC200"/>
</g>
<path fill-rule="evenodd" clip-rule="evenodd" d="M45.95 125.18C45.95 125.45 45.95 125.71 45.97 125.98C46.37 135.64 50.51 144.57 57.63 151.12C62.41 155.52 68.14 158.48 74.32 159.84C77.35 160.5 80.48 160.78 83.65 160.65C93.31 160.25 102.24 156.11 108.79 148.99C111.77 145.74 114.47 142.05 116.33 138.08C115.37 136.3 114.15 134.57 113.16 132.92H98.91C98.91 137.36 97.28 141.57 94.26 144.85C91.07 148.31 86.7299 150.33 82.0199 150.53C72.3599 150.93 63.12 147.55 56 141C53.39 138.6 51.1899 135.88 49.4199 132.92C47.9599 130.49 46.8 127.89 45.95 125.18Z" fill="#FFC200"/>
<mask id="mask16_521_2" style="mask-type:luminance" maskUnits="userSpaceOnUse" x="45" y="125" width="72" height="36">
<path d="M45.95 125.18C45.95 125.45 45.95 125.71 45.97 125.98C46.37 135.64 50.51 144.57 57.63 151.12C62.41 155.52 68.14 158.48 74.32 159.84C77.35 160.5 80.48 160.78 83.65 160.65C93.31 160.25 102.24 156.11 108.79 148.99C111.77 145.74 114.47 142.05 116.33 138.08C115.37 136.3 114.15 134.57 113.16 132.92H98.91C98.91 137.36 97.28 141.57 94.26 144.85C91.07 148.31 86.7299 150.33 82.0199 150.53C72.3599 150.93 63.12 147.55 56 141C53.39 138.6 51.1899 135.88 49.4199 132.92C47.9599 130.49 46.8 127.89 45.95 125.18Z" fill="white"/>
</mask>
<g mask="url(#mask16_521_2)">
<path d="M116.32 125.18H45.95V160.78H116.32V125.18Z" fill="#FFC200"/>
</g>
<path fill-rule="evenodd" clip-rule="evenodd" d="M102.05 126.44C102.05 126.68 102.06 126.93 102.06 127.17C102.06 126.93 102.05 126.68 102.04 126.44" fill="#FFC200"/>
<mask id="mask17_521_2" style="mask-type:luminance" maskUnits="userSpaceOnUse" x="102" y="126" width="1" height="2">
<path d="M102.05 126.44C102.05 126.68 102.06 126.93 102.06 127.17C102.06 126.93 102.05 126.68 102.04 126.44" fill="white"/>
</mask>
<g mask="url(#mask17_521_2)">
<path d="M102.07 126.44H102.05V127.17H102.07V126.44Z" fill="#FFC200"/>
</g>
<path d="M105.16 172.88C105.27 173.04 105.37 173.17 105.46 173.28C105.36 173.15 105.26 173.02 105.16 172.88Z" fill="#FFC200"/>
<path d="M105.46 173.29C105.67 173.55 105.8 173.69 105.8 173.69C105.68 173.56 105.57 173.42 105.46 173.29Z" fill="#FFC200"/>
<path fill-rule="evenodd" clip-rule="evenodd" d="M18.5801 130.26H18.5701C18.5701 130.5 18.5801 130.75 18.5901 130.99C18.5901 130.74 18.5801 130.5 18.5801 130.26Z" fill="#FFC200"/>
<mask id="mask18_521_2" style="mask-type:luminance" maskUnits="userSpaceOnUse" x="18" y="130" width="1" height="1">
<path d="M18.5801 130.26H18.5701C18.5701 130.5 18.5801 130.75 18.5901 130.99C18.5901 130.74 18.5801 130.5 18.5801 130.26Z" fill="white"/>
</mask>
<g mask="url(#mask18_521_2)">
<path d="M18.5901 130.26H18.5701V130.99H18.5901V130.26Z" fill="#FFC200"/>
</g>
<path fill-rule="evenodd" clip-rule="evenodd" d="M188.18 126.85C188.19 127.1 188.19 127.34 188.19 127.59C188.19 127.34 188.18 127.1 188.17 126.85" fill="#FFC200"/>
<mask id="mask19_521_2" style="mask-type:luminance" maskUnits="userSpaceOnUse" x="188" y="126" width="1" height="2">
<path d="M188.18 126.85C188.19 127.1 188.19 127.34 188.19 127.59C188.19 127.34 188.18 127.1 188.17 126.85" fill="white"/>
</mask>
<g mask="url(#mask19_521_2)">
<path d="M188.2 126.85H188.18V127.59H188.2V126.85Z" fill="#FFC200"/>
</g>
<path fill-rule="evenodd" clip-rule="evenodd" d="M323.5 130.19H323.49C323.49 130.43 323.5 130.68 323.51 130.92C323.5 130.67 323.5 130.43 323.5 130.19Z" fill="#FFC200"/>
<mask id="mask20_521_2" style="mask-type:luminance" maskUnits="userSpaceOnUse" x="323" y="130" width="1" height="1">
<path d="M323.5 130.19H323.49C323.49 130.43 323.5 130.68 323.51 130.92C323.5 130.67 323.5 130.43 323.5 130.19Z" fill="white"/>
</mask>
<g mask="url(#mask20_521_2)">
<path d="M323.51 130.19H323.49V130.92H323.51V130.19Z" fill="#FFC200"/>
</g>
<path d="M339.61 109.17C339.48 109.27 339.35 109.37 339.21 109.47C339.36 109.36 339.5 109.26 339.61 109.17Z" fill="#FFC200"/>
<path d="M339.62 109.16C339.88 108.95 340.02 108.82 340.02 108.82C339.89 108.94 339.75 109.05 339.62 109.16Z" fill="#FFC200"/>
<path fill-rule="evenodd" clip-rule="evenodd" d="M43.9199 131.51C43.9199 132.01 43.9199 132.51 43.9499 133.02C44.3499 142.68 48.4899 151.61 55.6099 158.16C60.3899 162.55 66.1199 165.52 72.2999 166.88C75.3199 167.55 78.4599 167.82 81.6299 167.69C91.2899 167.29 100.22 163.15 106.77 156.03C111.17 151.25 114.97 145.52 116.33 139.34C115.49 136.59 113.47 133.97 112 131.51H97.7499C97.7499 135.95 96.1199 140.16 93.0999 143.44C89.9099 146.9 85.5699 148.92 80.8599 149.12C71.1999 149.52 61.9599 146.14 54.8399 139.59C52.2299 137.19 50.0299 134.47 48.2599 131.51C46.7899 129.05 45.6099 126.43 44.7699 123.68C44.2099 126.23 43.9299 128.85 43.9299 131.51" fill="#FFC200"/>
<mask id="mask21_521_2" style="mask-type:luminance" maskUnits="userSpaceOnUse" x="43" y="123" width="74" height="45">
<path d="M43.9199 131.51C43.9199 132.01 43.9199 132.51 43.9499 133.02C44.3499 142.68 48.4899 151.61 55.6099 158.16C60.3899 162.55 66.1199 165.52 72.2999 166.88C75.3199 167.55 78.4599 167.82 81.6299 167.69C91.2899 167.29 100.22 163.15 106.77 156.03C111.17 151.25 114.97 145.52 116.33 139.34C115.49 136.59 113.47 133.97 112 131.51H97.7499C97.7499 135.95 96.1199 140.16 93.0999 143.44C89.9099 146.9 85.5699 148.92 80.8599 149.12C71.1999 149.52 61.9599 146.14 54.8399 139.59C52.2299 137.19 50.0299 134.47 48.2599 131.51C46.7899 129.05 45.6099 126.43 44.7699 123.68C44.2099 126.23 43.9299 128.85 43.9299 131.51" fill="white"/>
</mask>
<g mask="url(#mask21_521_2)">
<path d="M116.32 123.68H43.9099V167.82H116.32V123.68Z" fill="#FFC200"/>
</g>
<path fill-rule="evenodd" clip-rule="evenodd" d="M43.9199 130.25C43.9199 130.75 43.9199 131.25 43.9499 131.76C44.3499 141.42 48.4899 150.35 55.6099 156.9C60.3899 161.29 66.1199 164.26 72.2999 165.62C75.3199 166.29 78.4599 166.56 81.6299 166.43C91.2899 166.03 100.22 161.89 106.77 154.77C111.17 149.99 114.97 144.26 116.33 138.08C115.49 135.33 113.47 132.71 112 130.25H97.7499C97.7499 134.69 96.1199 138.9 93.0999 142.18C89.9099 145.64 85.5699 147.66 80.8599 147.86C71.1999 148.26 61.9599 144.88 54.8399 138.33C52.2299 135.93 50.0299 133.21 48.2599 130.25C46.7899 127.79 45.6099 125.17 44.7699 122.42C44.2099 124.97 43.9299 127.59 43.9299 130.25" fill="#FFC200"/>
<mask id="mask22_521_2" style="mask-type:luminance" maskUnits="userSpaceOnUse" x="43" y="122" width="74" height="45">
<path d="M43.9199 130.25C43.9199 130.75 43.9199 131.25 43.9499 131.76C44.3499 141.42 48.4899 150.35 55.6099 156.9C60.3899 161.29 66.1199 164.26 72.2999 165.62C75.3199 166.29 78.4599 166.56 81.6299 166.43C91.2899 166.03 100.22 161.89 106.77 154.77C111.17 149.99 114.97 144.26 116.33 138.08C115.49 135.33 113.47 132.71 112 130.25H97.7499C97.7499 134.69 96.1199 138.9 93.0999 142.18C89.9099 145.64 85.5699 147.66 80.8599 147.86C71.1999 148.26 61.9599 144.88 54.8399 138.33C52.2299 135.93 50.0299 133.21 48.2599 130.25C46.7899 127.79 45.6099 125.17 44.7699 122.42C44.2099 124.97 43.9299 127.59 43.9299 130.25" fill="white"/>
</mask>
<g mask="url(#mask22_521_2)">
<path d="M116.32 122.42H43.9099V166.56H116.32V122.42Z" fill="#FFC200"/>
</g>
<path fill-rule="evenodd" clip-rule="evenodd" d="M102.05 126.44C102.05 126.68 102.06 126.93 102.06 127.17C102.06 126.93 102.05 126.68 102.04 126.44" fill="#FFC200"/>
<mask id="mask23_521_2" style="mask-type:luminance" maskUnits="userSpaceOnUse" x="102" y="126" width="1" height="2">
<path d="M102.05 126.44C102.05 126.68 102.06 126.93 102.06 127.17C102.06 126.93 102.05 126.68 102.04 126.44" fill="white"/>
</mask>
<g mask="url(#mask23_521_2)">
<path d="M102.07 126.44H102.05V127.17H102.07V126.44Z" fill="#FFC200"/>
</g>
<path d="M105.16 172.88C105.27 173.04 105.37 173.17 105.46 173.28C105.36 173.15 105.26 173.02 105.16 172.88Z" fill="#FFC200"/>
<path d="M105.46 173.29C105.67 173.55 105.8 173.69 105.8 173.69C105.68 173.56 105.57 173.42 105.46 173.29Z" fill="#FFC200"/>
<path fill-rule="evenodd" clip-rule="evenodd" d="M18.5801 130.26H18.5701C18.5701 130.5 18.5801 130.75 18.5901 130.99C18.5901 130.74 18.5801 130.5 18.5801 130.26Z" fill="#FFC200"/>
<mask id="mask24_521_2" style="mask-type:luminance" maskUnits="userSpaceOnUse" x="18" y="130" width="1" height="1">
<path d="M18.5801 130.26H18.5701C18.5701 130.5 18.5801 130.75 18.5901 130.99C18.5901 130.74 18.5801 130.5 18.5801 130.26Z" fill="white"/>
</mask>
<g mask="url(#mask24_521_2)">
<path d="M18.5901 130.26H18.5701V130.99H18.5901V130.26Z" fill="#FFC200"/>
</g>
<path fill-rule="evenodd" clip-rule="evenodd" d="M33.2899 166.26H33.2999C38.3899 166.26 42.5199 162.13 42.5199 157.04C42.5199 156.91 42.5199 156.79 42.5199 156.67C41.2099 156.87 39.8799 157 38.5299 157.06C37.7599 157.09 36.9799 157.1 36.2199 157.08C35.6899 157.07 35.1599 157.04 34.6399 157.01C34.3999 156.99 34.1699 156.97 33.9299 156.95C33.6499 156.93 33.3699 156.91 33.0899 156.87C32.7699 156.84 32.4599 156.79 32.1399 156.75C31.9499 156.73 31.7599 156.7 31.5699 156.67C31.1999 156.61 30.8399 156.55 30.4699 156.48C30.3399 156.46 30.2099 156.44 30.0799 156.41C29.6699 156.33 29.2699 156.24 28.8599 156.15L28.6099 156.09C28.1699 155.99 27.7399 155.87 27.3099 155.75L27.1799 155.71C26.7199 155.58 26.2699 155.44 25.8099 155.3H25.7599C25.2899 155.13 24.8199 154.97 24.3599 154.8C20.0299 153.19 16.0099 150.74 12.4999 147.51C2.4199 138.25 0.789902 128.28 0.149902 115.34C0.149902 115.67 0.199902 127.64 0.199902 130.26C0.199902 130.75 0.179902 131.24 0.199902 131.73C0.599902 141.39 4.5799 150.32 11.6899 156.87C16.4699 161.27 22.1999 164.23 28.3799 165.59C29.3799 165.81 31.0999 166.21 32.3599 166.22C32.6699 166.22 32.9799 166.26 33.2899 166.27" fill="#FFC200"/>
<mask id="mask25_521_2" style="mask-type:luminance" maskUnits="userSpaceOnUse" x="0" y="115" width="43" height="52">
<path d="M33.2899 166.26H33.2999C38.3899 166.26 42.5199 162.13 42.5199 157.04C42.5199 156.91 42.5199 156.79 42.5199 156.67C41.2099 156.87 39.8799 157 38.5299 157.06C37.7599 157.09 36.9799 157.1 36.2199 157.08C35.6899 157.07 35.1599 157.04 34.6399 157.01C34.3999 156.99 34.1699 156.97 33.9299 156.95C33.6499 156.93 33.3699 156.91 33.0899 156.87C32.7699 156.84 32.4599 156.79 32.1399 156.75C31.9499 156.73 31.7599 156.7 31.5699 156.67C31.1999 156.61 30.8399 156.55 30.4699 156.48C30.3399 156.46 30.2099 156.44 30.0799 156.41C29.6699 156.33 29.2699 156.24 28.8599 156.15L28.6099 156.09C28.1699 155.99 27.7399 155.87 27.3099 155.75L27.1799 155.71C26.7199 155.58 26.2699 155.44 25.8099 155.3H25.7599C25.2899 155.13 24.8199 154.97 24.3599 154.8C20.0299 153.19 16.0099 150.74 12.4999 147.51C2.4199 138.25 0.789902 128.28 0.149902 115.34C0.149902 115.67 0.199902 127.64 0.199902 130.26C0.199902 130.75 0.179902 131.24 0.199902 131.73C0.599902 141.39 4.5799 150.32 11.6899 156.87C16.4699 161.27 22.1999 164.23 28.3799 165.59C29.3799 165.81 31.0999 166.21 32.3599 166.22C32.6699 166.22 32.9799 166.26 33.2899 166.27" fill="white"/>
</mask>
<g mask="url(#mask25_521_2)">
<path d="M42.5199 115.34H0.149902V166.27H42.5199V115.34Z" fill="#FFC200"/>
</g>
<path fill-rule="evenodd" clip-rule="evenodd" d="M79.3901 112.62C84.0901 112.43 88.5901 114.09 92.0601 117.28C95.5201 120.47 97.5401 124.81 97.7401 129.52C97.7401 129.76 97.7501 130.01 97.7601 130.25V162.36C97.9701 171.76 94.5901 180.71 88.2101 187.65C83.8201 192.42 78.3501 195.86 72.3101 197.72C75.3301 198.38 78.4601 198.66 81.6301 198.53C91.2901 198.13 100.22 193.99 106.77 186.87C111.17 182.09 114.13 176.36 115.49 170.18C116.05 167.64 116.33 165.01 116.33 162.35V138.07L112.38 130.48C110.85 127.93 109.06 124.87 106.91 122.72C106.57 122.38 106.22 122.04 105.87 121.72C99.1301 115.52 90.0501 112.56 80.9501 112.56C80.4401 112.56 79.9201 112.61 79.4101 112.63V112.61L79.3901 112.62Z" fill="#FFC200"/>
<mask id="mask26_521_2" style="mask-type:luminance" maskUnits="userSpaceOnUse" x="72" y="112" width="45" height="87">
<path d="M79.3901 112.62C84.0901 112.43 88.5901 114.09 92.0601 117.28C95.5201 120.47 97.5401 124.81 97.7401 129.52C97.7401 129.76 97.7501 130.01 97.7601 130.25V162.36C97.9701 171.76 94.5901 180.71 88.2101 187.65C83.8201 192.42 78.3501 195.86 72.3101 197.72C75.3301 198.38 78.4601 198.66 81.6301 198.53C91.2901 198.13 100.22 193.99 106.77 186.87C111.17 182.09 114.13 176.36 115.49 170.18C116.05 167.64 116.33 165.01 116.33 162.35V138.07L112.38 130.48C110.85 127.93 109.06 124.87 106.91 122.72C106.57 122.38 106.22 122.04 105.87 121.72C99.1301 115.52 90.0501 112.56 80.9501 112.56C80.4401 112.56 79.9201 112.61 79.4101 112.63V112.61L79.3901 112.62Z" fill="white"/>
</mask>
<g mask="url(#mask26_521_2)">
<path d="M116.32 112.42H72.29V198.66H116.32V112.42Z" fill="#FFC200"/>
</g>
<path fill-rule="evenodd" clip-rule="evenodd" d="M72.6 103.91C72.26 104.25 71.92 104.6 71.6 104.96C65.22 111.9 62.09 120.85 62.29 130.25H62.48C62.48 125.81 64.13 121.6 67.15 118.32C70.34 114.86 74.68 112.84 79.39 112.64C89.05 112.24 98.29 115.62 105.41 122.17C108.02 124.57 110.22 127.29 111.99 130.25C113.46 132.71 116.32 139.35 116.32 139.35C116.32 139.35 116.32 132.91 116.32 130.25C116.32 129.75 116.32 129.25 116.29 128.75C115.89 119.09 111.75 110.16 104.63 103.61C99.86 99.21 94.05 96.23 87.87 94.88C82.28 96.61 76.81 99.69 72.59 103.92" fill="#FFC200"/>
<mask id="mask27_521_2" style="mask-type:luminance" maskUnits="userSpaceOnUse" x="62" y="94" width="55" height="46">
<path d="M72.6 103.91C72.26 104.25 71.92 104.6 71.6 104.96C65.22 111.9 62.09 120.85 62.29 130.25H62.48C62.48 125.81 64.13 121.6 67.15 118.32C70.34 114.86 74.68 112.84 79.39 112.64C89.05 112.24 98.29 115.62 105.41 122.17C108.02 124.57 110.22 127.29 111.99 130.25C113.46 132.71 116.32 139.35 116.32 139.35C116.32 139.35 116.32 132.91 116.32 130.25C116.32 129.75 116.32 129.25 116.29 128.75C115.89 119.09 111.75 110.16 104.63 103.61C99.86 99.21 94.05 96.23 87.87 94.88C82.28 96.61 76.81 99.69 72.59 103.92" fill="white"/>
</mask>
<g mask="url(#mask27_521_2)">
<path d="M116.33 94.87H62.0901V139.35H116.33V94.87Z" fill="#FFC200"/>
</g>
<path fill-rule="evenodd" clip-rule="evenodd" d="M131.41 166.47C141.81 166.47 150.24 158.04 150.24 147.64V144.31V112.87C150.24 102.47 141.81 94.04 131.41 94.04V166.47Z" fill="#FFC200"/>
<mask id="mask28_521_2" style="mask-type:luminance" maskUnits="userSpaceOnUse" x="131" y="94" width="20" height="73">
<path d="M131.41 166.47C141.81 166.47 150.24 158.04 150.24 147.64V144.31V112.87C150.24 102.47 141.81 94.04 131.41 94.04V166.47Z" fill="white"/>
</mask>
<g mask="url(#mask28_521_2)">
<path d="M150.25 94.04H131.41V166.47H150.25V94.04Z" fill="#FFC200"/>
</g>
<path fill-rule="evenodd" clip-rule="evenodd" d="M212.41 50.22C212.41 53.44 212.14 56.66 211.61 59.86L205.91 93.7C205.06 98.78 210.9 102.25 214.95 99.06L275.53 51.35C280.98 47.05 281.76 39.65 278.49 34.29C260.43 46.9 242.46 50.95 220.68 50.67C217.9 50.64 215.14 50.48 212.41 50.22Z" fill="#FFC200"/>
<mask id="mask29_521_2" style="mask-type:luminance" maskUnits="userSpaceOnUse" x="205" y="34" width="76" height="67">
<path d="M212.41 50.22C212.41 53.44 212.14 56.66 211.61 59.86L205.91 93.7C205.06 98.78 210.9 102.25 214.95 99.06L275.53 51.35C280.98 47.05 281.76 39.65 278.49 34.29C260.43 46.9 242.46 50.95 220.68 50.67C217.9 50.64 215.14 50.48 212.41 50.22Z" fill="white"/>
</mask>
<g mask="url(#mask29_521_2)">
<path d="M281.77 34.28H205.06V102.23H281.77V34.28Z" fill="#FFC200"/>
</g>
<path fill-rule="evenodd" clip-rule="evenodd" d="M212.38 48.47C212.46 52.12 212.19 56.22 211.58 59.85L209.61 71.83C210.11 72.83 210.72 73.78 211.47 74.66C214.16 77.84 218.07 79.55 222.2 79.68C236.43 80.15 261.65 58.68 261.65 58.68L273.81 49.1C279.91 44.3 281.45 37.17 277.1 32.31C274.62 33.99 272.05 35.57 269.35 37.03C259.47 42.39 255.2 43.15 245.24 46C235.79 48.69 223.58 49.15 212.38 48.47Z" fill="#FFC200"/>
<mask id="mask30_521_2" style="mask-type:luminance" maskUnits="userSpaceOnUse" x="209" y="32" width="71" height="48">
<path d="M212.38 48.47C212.46 52.12 212.19 56.22 211.58 59.85L209.61 71.83C210.11 72.83 210.72 73.78 211.47 74.66C214.16 77.84 218.07 79.55 222.2 79.68C236.43 80.15 261.65 58.68 261.65 58.68L273.81 49.1C279.91 44.3 281.45 37.17 277.1 32.31C274.62 33.99 272.05 35.57 269.35 37.03C259.47 42.39 255.2 43.15 245.24 46C235.79 48.69 223.58 49.15 212.38 48.47Z" fill="white"/>
</mask>
<g mask="url(#mask30_521_2)">
<path d="M281.46 32.31H209.62V80.15H281.46V32.31Z" fill="#FFC200"/>
</g>
<path fill-rule="evenodd" clip-rule="evenodd" d="M204.44 17.3L209.3 31.52C211.17 36.98 212.2 42.7 212.38 48.46V48.51C212.67 50.96 215.62 67.47 247.13 57.71C265.77 51.94 283.25 42.11 277.48 32.74C276.48 31.55 275.25 30.5 273.77 29.69L223.08 1.67C220.99 0.52 218.84 0 216.76 0C208.46 0 201.36 8.27 204.44 17.3Z" fill="#FFC200"/>
<mask id="mask31_521_2" style="mask-type:luminance" maskUnits="userSpaceOnUse" x="203" y="0" width="76" height="61">
<path d="M204.44 17.3L209.3 31.52C211.17 36.98 212.2 42.7 212.38 48.46V48.51C212.67 50.96 215.62 67.47 247.13 57.71C265.77 51.94 283.25 42.11 277.48 32.74C276.48 31.55 275.25 30.5 273.77 29.69L223.08 1.67C220.99 0.52 218.84 0 216.76 0C208.46 0 201.36 8.27 204.44 17.3Z" fill="white"/>
</mask>
<g mask="url(#mask31_521_2)">
<path d="M283.25 0H201.36V67.47H283.25V0Z" fill="#FFC200"/>
</g>
<path fill-rule="evenodd" clip-rule="evenodd" d="M204.44 17.3C229.93 58.47 283.4 41.88 273.77 29.69L223.08 1.67C220.99 0.51 218.84 0 216.76 0C208.46 0 201.36 8.27 204.44 17.3Z" fill="#FFC200"/>
<mask id="mask32_521_2" style="mask-type:luminance" maskUnits="userSpaceOnUse" x="203" y="0" width="72" height="44">
<path d="M204.44 17.3C229.93 58.47 283.4 41.88 273.77 29.69L223.08 1.67C220.99 0.51 218.84 0 216.76 0C208.46 0 201.36 8.27 204.44 17.3Z" fill="white"/>
</mask>
<g mask="url(#mask32_521_2)">
<path d="M283.41 0H201.36V58.47H283.41V0Z" fill="#FFC200"/>
</g>
</svg>
