<svg width="77" height="101" viewBox="0 0 77 101" fill="none" xmlns="http://www.w3.org/2000/svg">
<path fill-rule="evenodd" clip-rule="evenodd" d="M8.70343 50.22C8.70343 53.44 8.43343 56.66 7.90343 59.86L2.20343 93.7C1.35343 98.78 7.19343 102.25 11.2434 99.06L71.8234 51.35C77.2734 47.05 78.0534 39.65 74.7834 34.29C56.7234 46.9 38.7534 50.95 16.9734 50.67C14.1934 50.64 11.4334 50.48 8.70343 50.22Z" fill="white"/>
<mask id="mask0_541_2" style="mask-type:luminance" maskUnits="userSpaceOnUse" x="2" y="34" width="75" height="67">
<path d="M8.70343 50.22C8.70343 53.44 8.43343 56.66 7.90343 59.86L2.20343 93.7C1.35343 98.78 7.19343 102.25 11.2434 99.06L71.8234 51.35C77.2734 47.05 78.0534 39.65 74.7834 34.29C56.7234 46.9 38.7534 50.95 16.9734 50.67C14.1934 50.64 11.4334 50.48 8.70343 50.22Z" fill="white"/>
</mask>
<g mask="url(#mask0_541_2)">
<path d="M78.0635 34.28H1.35352V102.23H78.0635V34.28Z" fill="white"/>
</g>
<path fill-rule="evenodd" clip-rule="evenodd" d="M8.67332 48.47C8.75332 52.12 8.48332 56.22 7.87332 59.85L5.90332 71.83C6.40332 72.83 7.01332 73.78 7.76332 74.66C10.4533 77.84 14.3633 79.55 18.4933 79.68C32.7233 80.15 57.9433 58.68 57.9433 58.68L70.1033 49.1C76.2033 44.3 77.7433 37.17 73.3933 32.31C70.9133 33.99 68.3433 35.57 65.6433 37.03C55.7633 42.39 51.4933 43.15 41.5333 46C32.0833 48.69 19.8733 49.15 8.67332 48.47Z" fill="white"/>
<mask id="mask1_541_2" style="mask-type:luminance" maskUnits="userSpaceOnUse" x="5" y="32" width="71" height="48">
<path d="M8.67332 48.47C8.75332 52.12 8.48332 56.22 7.87332 59.85L5.90332 71.83C6.40332 72.83 7.01332 73.78 7.76332 74.66C10.4533 77.84 14.3633 79.55 18.4933 79.68C32.7233 80.15 57.9433 58.68 57.9433 58.68L70.1033 49.1C76.2033 44.3 77.7433 37.17 73.3933 32.31C70.9133 33.99 68.3433 35.57 65.6433 37.03C55.7633 42.39 51.4933 43.15 41.5333 46C32.0833 48.69 19.8733 49.15 8.67332 48.47Z" fill="white"/>
</mask>
<g mask="url(#mask1_541_2)">
<path d="M77.7531 32.31H5.91309V80.15H77.7531V32.31Z" fill="white"/>
</g>
<path fill-rule="evenodd" clip-rule="evenodd" d="M0.733593 17.3L5.59359 31.52C7.46359 36.98 8.4936 42.7 8.6736 48.46V48.51C8.9636 50.96 11.9136 67.47 43.4236 57.71C62.0636 51.94 79.5436 42.11 73.7736 32.74C72.7736 31.55 71.5436 30.5 70.0636 29.69L19.3736 1.67C17.2836 0.52 15.1336 0 13.0536 0C4.75358 0 -2.34641 8.27 0.733593 17.3Z" fill="white"/>
<mask id="mask2_541_2" style="mask-type:luminance" maskUnits="userSpaceOnUse" x="0" y="0" width="75" height="61">
<path d="M0.733593 17.3L5.59359 31.52C7.46359 36.98 8.4936 42.7 8.6736 48.46V48.51C8.9636 50.96 11.9136 67.47 43.4236 57.71C62.0636 51.94 79.5436 42.11 73.7736 32.74C72.7736 31.55 71.5436 30.5 70.0636 29.69L19.3736 1.67C17.2836 0.52 15.1336 0 13.0536 0C4.75358 0 -2.34641 8.27 0.733593 17.3Z" fill="white"/>
</mask>
<g mask="url(#mask2_541_2)">
<path d="M79.5438 0H-2.34619V67.47H79.5438V0Z" fill="white"/>
</g>
<path fill-rule="evenodd" clip-rule="evenodd" d="M0.733593 17.3C26.2236 58.47 79.6936 41.88 70.0636 29.69L19.3736 1.67C17.2836 0.51 15.1336 0 13.0536 0C4.75358 0 -2.34641 8.27 0.733593 17.3Z" fill="white"/>
<mask id="mask3_541_2" style="mask-type:luminance" maskUnits="userSpaceOnUse" x="0" y="0" width="72" height="44">
<path d="M0.733593 17.3C26.2236 58.47 79.6936 41.88 70.0636 29.69L19.3736 1.67C17.2836 0.51 15.1336 0 13.0536 0C4.75358 0 -2.34641 8.27 0.733593 17.3Z" fill="white"/>
</mask>
<g mask="url(#mask3_541_2)">
<path d="M79.7038 0H-2.34619V58.47H79.7038V0Z" fill="white"/>
</g>
</svg>
