<svg width="240" height="134" viewBox="0 0 240 134" fill="none" xmlns="http://www.w3.org/2000/svg">
<path d="M22.7478 2.00009C14.8811 4.40009 8.61443 9.60009 4.21443 17.0668L0.4811 23.3334L0.0811 63.6001C-0.185567 89.6001 0.214433 105.733 1.14777 109.2C3.14777 116.933 10.2144 125.333 17.8144 129.2C23.9478 132.4 25.8144 132.667 47.5478 133.067L70.6144 133.6L68.6144 129.467C65.9478 124.4 65.9478 115.733 68.4811 110.667L70.6144 106.667H50.0811C35.9478 106.667 29.1478 106.133 28.0811 105.067C25.8144 102.8 25.8144 30.5334 28.0811 28.2668C29.2811 27.0668 38.2144 26.6668 60.0811 26.6668H90.6144L106.481 13.8668C115.281 6.80009 122.481 0.800091 122.481 0.533424C122.481 0.266757 101.281 9.06885e-05 75.5478 0.133424C40.2144 0.133424 27.0144 0.666757 22.7478 2.00009Z" fill="black"/>
<path d="M155.815 0.53352C155.815 0.800187 156.748 2.80019 157.815 4.80019C160.348 9.73352 160.348 16.1335 157.948 22.0002L155.948 26.6669H175.815C192.081 26.6669 195.948 27.0669 197.681 28.8002C200.881 31.8669 200.881 101.467 197.681 104.534C195.948 106.4 191.148 106.667 165.415 106.667H135.148L118.881 119.734L102.481 132.667L148.215 133.067C178.215 133.334 196.215 132.934 200.748 132C214.748 128.934 224.348 117.334 225.948 101.467C226.615 96.0002 227.415 93.3335 228.615 93.3335C229.681 93.3335 232.348 91.6002 234.748 89.4669L239.148 85.6002V66.6669V47.7335L234.748 43.8669C232.348 41.7335 229.681 40.0002 228.615 40.0002C227.415 40.0002 226.615 37.3335 225.948 31.8669C225.015 22.1335 219.815 11.8669 213.548 7.06685C206.215 1.46685 198.615 0.000186973 176.215 0.000186973C165.015 0.000186973 155.815 0.266854 155.815 0.53352Z" fill="black"/>
<path d="M102.481 34.9334C83.0141 50.5334 67.014 64.4001 66.7474 65.7334C66.4807 67.0667 67.2807 69.3334 68.614 70.8001C70.614 73.0667 72.7474 73.3334 86.7474 73.3334H102.481L91.1474 96.0001C84.8807 108.4 79.814 119.467 79.814 120.4C79.814 122.8 84.0807 126.667 86.6141 126.667C89.1474 126.667 157.814 71.6001 158.881 68.6667C160.081 65.6001 157.681 61.4667 154.081 60.6667C152.481 60.2667 145.014 59.8667 137.681 59.6001L124.081 59.3334L135.281 36.1334C143.814 18.4001 146.081 12.5334 145.147 10.6667C143.947 8.53341 141.014 6.66674 138.747 6.66674C138.214 6.66674 121.947 19.4667 102.481 34.9334Z" fill="black"/>
</svg>
