<svg width="267" height="267" viewBox="0 0 267 267" fill="none" xmlns="http://www.w3.org/2000/svg">
<path d="M124.965 1.81706C119.365 4.21706 116.565 9.9504 116.565 19.0171V26.2171L107.631 29.0171C79.7648 37.4171 56.9648 62.8837 51.8982 91.1504C50.8315 97.0171 49.3648 110.484 48.6982 121.15C48.0315 132.484 46.5648 143.284 45.2315 147.15C41.2315 159.15 33.8981 172.617 26.6981 181.417C22.8315 186.084 18.9648 191.284 18.0315 192.75C16.0315 196.75 16.1648 203.284 18.5648 207.817C22.8315 216.084 18.2982 215.817 132.565 215.817C246.431 215.817 242.298 216.084 246.431 208.084C250.965 199.417 249.765 194.884 239.765 182.217C229.231 169.017 221.498 153.817 218.698 140.617C217.498 135.417 216.031 121.817 215.365 110.484C214.431 93.9504 213.498 88.0837 210.831 80.8837C201.498 55.1504 181.231 35.6837 156.298 28.4837L148.565 26.3504V19.0171C148.565 9.81706 145.765 4.21706 139.898 1.68373C134.298 -0.582938 130.431 -0.582938 124.965 1.81706Z" fill="black"/>
<path d="M45.2316 5.28358C40.9649 7.68358 32.8316 15.8169 26.5649 23.9502C9.89822 45.4169 0.298223 71.9502 0.0315565 97.5503C-0.101777 108.884 0.0315564 109.55 3.63156 112.617C9.63156 117.817 18.6982 116.617 22.0316 110.084C22.9649 108.484 24.1649 101.684 24.6982 95.1503C25.3649 88.4836 26.6982 79.5503 27.8982 75.1503C31.2316 61.9502 40.9649 44.2169 52.0316 31.2836C61.0982 20.6169 62.0316 18.8836 61.3649 15.2836C59.7649 7.55025 50.9649 2.08358 45.2316 5.28358Z" fill="black"/>
<path d="M211.898 5.01688C208.165 6.61688 204.965 10.4835 204.031 14.4835C203.098 18.3502 204.698 21.1502 215.498 34.0835C230.298 51.9502 237.765 70.0836 241.098 96.3502C242.565 108.617 243.365 111.417 245.898 113.417C250.565 117.284 257.365 116.484 262.165 111.684L266.298 107.684L265.498 95.4169C264.565 80.8836 259.765 61.1502 254.165 49.0169C246.298 31.5502 228.165 8.35021 220.165 5.28355C215.898 3.55021 215.498 3.55021 211.898 5.01688Z" fill="black"/>
<path d="M99.8982 238.084C102.698 253.55 117.632 266.35 132.565 266.484C145.098 266.484 160.698 254.75 164.298 242.75C167.365 232.484 169.765 233.15 132.432 233.15H98.9648L99.8982 238.084Z" fill="black"/>
</svg>
