<svg width="333" height="267" viewBox="0 0 333 267" fill="none" xmlns="http://www.w3.org/2000/svg">
<path d="M158.602 1.81715C153.002 4.21715 150.202 9.95048 150.202 19.0172V26.3505L142.602 28.4838C124.869 33.5505 105.135 48.7505 95.6688 64.3505C87.0021 78.7505 84.7355 87.5505 83.5355 111.15C82.8688 122.884 81.8021 135.15 81.0021 138.484C77.0021 155.95 69.1355 171.417 57.0021 185.817C51.4021 192.35 50.2021 194.617 50.2021 198.884C50.2021 201.684 51.1355 205.684 52.2021 207.817C56.4688 216.084 51.9355 215.817 166.202 215.817C280.469 215.817 275.935 216.084 280.202 207.817C284.335 199.817 283.002 195.017 273.002 181.95C255.802 159.55 251.135 145.684 249.002 111.15C248.202 97.6838 246.869 88.3505 245.002 82.4838C237.135 57.5505 216.069 36.6171 191.269 29.0171L182.202 26.2171V19.0172C182.202 9.81715 179.269 4.21715 173.535 1.68382C167.935 -0.582848 164.069 -0.582848 158.602 1.81715Z" fill="black"/>
<path d="M25.0018 7.41706C21.0018 10.7504 19.9352 18.7504 22.7352 23.1504C25.8018 27.8171 60.6018 45.1504 66.8685 45.1504C76.2018 45.1504 81.5352 34.4837 76.0685 26.7504C75.0018 25.0171 65.6685 19.5504 55.4018 14.4837C35.8018 4.61706 30.0685 3.28372 25.0018 7.41706Z" fill="black"/>
<path d="M276.602 14.4837C266.602 19.5504 257.402 25.0171 256.335 26.7504C251.268 33.9504 257.002 45.1504 265.668 45.1504C270.602 45.1504 303.268 29.6837 308.602 24.7504C312.735 20.8837 312.602 12.7504 308.202 8.48372C302.868 3.01706 297.402 4.08372 276.602 14.4837Z" fill="black"/>
<path d="M5.802 93.2838C4.602 93.9505 2.602 96.4838 1.402 98.6171C-1.26467 103.817 -0.0646693 109.55 4.46866 113.15C7.66866 115.55 9.802 115.817 33.002 115.817C57.5353 115.817 58.0687 115.684 61.802 112.617C67.002 108.084 67.002 99.5505 61.802 95.0171C58.0687 91.9505 57.5353 91.8171 33.1353 91.8171C18.7353 91.8171 7.26866 92.4838 5.802 93.2838Z" fill="black"/>
<path d="M272.469 93.2838C271.269 93.9505 269.269 96.4838 268.069 98.6171C265.402 103.817 266.602 109.55 271.135 113.15C274.335 115.55 276.469 115.817 299.669 115.817C324.202 115.817 324.735 115.684 328.469 112.617C331.402 110.084 332.202 108.35 332.202 103.817C332.202 99.2838 331.402 97.5505 328.469 95.0171C324.735 91.9505 324.202 91.8171 299.802 91.8171C285.402 91.8171 273.935 92.4838 272.469 93.2838Z" fill="black"/>
<path d="M132.869 234.617C132.869 240.084 136.602 248.617 141.135 253.817C155.002 269.55 173.802 270.484 189.135 256.084C195.135 250.484 199.535 241.417 199.535 234.884C199.535 233.55 192.869 233.15 166.202 233.15C143.669 233.15 132.869 233.55 132.869 234.617Z" fill="black"/>
</svg>
