<svg width="233" height="267" viewBox="0 0 233 267" fill="none" xmlns="http://www.w3.org/2000/svg">
<path d="M108.193 2.10528C102.459 4.90528 99.9262 9.97195 99.9262 19.0386V26.2386L90.9928 29.0386C77.9262 33.0386 66.1928 40.5053 56.0595 51.3053C40.7261 67.7053 33.2595 86.5053 33.2595 108.639C33.2595 139.572 26.1928 161.439 9.52614 181.972C5.79281 186.505 2.19281 191.439 1.39281 192.905C-0.60719 196.772 -0.473856 203.305 1.92614 207.839C6.19281 216.105 1.65948 215.839 115.926 215.839C230.193 215.839 225.659 216.105 229.926 207.839C234.059 199.705 232.726 194.639 223.126 182.505C205.793 160.505 200.593 145.039 198.726 111.172C197.126 81.3053 192.193 68.5053 175.659 51.1719C165.793 40.7719 155.393 33.8386 143.393 29.8386C132.059 25.9719 131.926 25.8386 131.926 18.3719C131.926 9.83861 128.993 4.10528 123.259 1.70528C117.393 -0.694722 113.659 -0.561388 108.193 2.10528ZM123.526 60.5053C125.126 61.7053 127.126 64.7719 127.926 67.5719C129.659 73.9719 129.659 117.705 127.793 124.105C125.793 131.705 117.659 135.172 110.193 131.705C103.926 128.905 103.259 126.239 102.859 99.3053C102.326 70.5053 102.859 66.1053 107.259 61.7053C110.993 57.9719 118.993 57.3053 123.526 60.5053ZM126.859 153.305C131.926 156.905 134.193 164.905 132.059 171.705C129.926 179.039 124.059 183.039 115.659 183.039C109.926 183.039 108.593 182.372 104.326 178.239C100.193 173.972 99.6595 172.772 99.6595 166.505C99.6595 160.505 100.193 159.039 103.926 155.172C106.326 152.639 109.526 150.372 111.126 150.105C115.793 149.039 122.993 150.639 126.859 153.305Z" fill="black"/>
<path d="M83.3928 238.105C85.3928 249.305 93.1261 258.772 103.926 263.705C110.859 266.905 116.193 267.172 124.993 264.905C136.193 262.105 149.259 246.239 149.259 235.305C149.259 233.439 145.926 233.172 115.926 233.172H82.4595L83.3928 238.105Z" fill="black"/>
</svg>
