<svg width="266" height="213" viewBox="0 0 266 213" fill="none" xmlns="http://www.w3.org/2000/svg">
<path d="M53.6143 0.769543C41.3477 2.50288 26.281 6.90288 15.2143 12.1029C-1.05233 19.5695 0.0143387 13.4362 0.0143387 95.0362V164.636L3.08101 168.236C5.48101 171.036 7.74767 171.97 13.081 172.503L20.0143 173.17V182.236C20.0143 189.836 20.5477 191.836 23.2143 195.036C26.1477 198.503 27.2143 198.77 36.0143 198.77C44.8143 198.77 45.881 198.503 48.8143 195.036C51.481 191.836 52.0143 189.836 52.0143 181.97V172.77H65.2143H78.281L78.9477 155.036C79.6143 134.503 81.881 127.836 91.2143 118.103C95.3477 113.836 97.881 109.57 99.881 103.57C101.348 98.7695 102.681 94.3695 102.681 93.8362C102.681 93.3029 98.8143 92.7695 94.0143 92.7695H85.3477V66.1029V39.4362H106.014C129.614 39.4362 131.214 40.1029 132.814 50.1029C133.481 54.5029 134.148 55.4362 135.881 54.6362C137.081 54.2362 142.681 53.4362 148.414 53.0362L158.681 52.3695V38.9029C158.681 21.1695 157.081 18.2362 143.081 11.8362C125.214 3.56954 110.548 0.63621 84.681 0.102876C72.281 -0.16379 58.281 0.102876 53.6143 0.769543ZM73.3477 66.1029V92.7695H53.2143C42.1477 92.7695 32.0143 92.2362 30.681 91.4362C29.3477 90.7695 27.6143 88.2362 26.8143 85.9695C24.9477 80.6362 24.9477 51.4362 26.681 46.5029C29.2143 39.9695 30.9477 39.4362 52.9477 39.4362H73.3477V66.1029ZM48.5477 129.036C51.6143 137.703 43.881 145.036 35.3477 141.57C27.6143 138.37 27.3477 127.303 35.081 124.103C40.5477 121.836 46.8143 124.103 48.5477 129.036Z" fill="black"/>
<path d="M139.881 67.8359C133.481 70.2359 127.481 74.6359 124.014 79.4359C122.548 81.5692 118.281 91.9692 114.548 102.369C108.814 118.503 107.081 121.969 103.214 125.169C93.881 132.903 93.3477 135.436 93.3477 171.969C93.3477 204.503 93.3477 204.636 96.5477 208.369C99.481 211.836 100.548 212.103 109.348 212.103C118.148 212.103 119.214 211.836 122.148 208.369C124.814 205.169 125.348 203.169 125.348 195.303V186.103H179.348H233.348V195.303C233.348 203.169 233.881 205.169 236.548 208.369C239.481 211.836 240.548 212.103 249.348 212.103C258.148 212.103 259.214 211.836 262.148 208.369C265.348 204.636 265.348 204.503 265.348 171.969C265.348 135.436 264.814 132.903 255.481 125.169C251.614 121.969 249.881 118.503 244.148 102.236C236.548 80.9025 233.481 75.8359 224.281 70.5025L218.014 66.7692L181.348 66.5025C153.614 66.2359 143.481 66.6359 139.881 67.8359ZM212.014 94.1025C213.614 94.9025 215.748 99.5692 217.881 106.636C219.748 112.769 221.348 118.236 221.348 118.636C221.348 119.036 202.414 119.436 179.348 119.436C156.281 119.436 137.348 119.036 137.348 118.503C137.348 115.569 144.548 96.5025 146.281 94.7692C147.881 93.1692 153.481 92.7692 178.814 92.7692C196.814 92.7692 210.548 93.3025 212.014 94.1025ZM135.214 149.036C138.281 157.703 130.548 165.036 122.014 161.569C114.281 158.369 114.014 147.303 121.748 144.103C127.214 141.836 133.481 144.103 135.214 149.036ZM241.881 149.036C244.948 157.703 237.214 165.036 228.681 161.569C220.948 158.369 220.681 147.303 228.414 144.103C233.881 141.836 240.148 144.103 241.881 149.036Z" fill="black"/>
</svg>
