<svg width="267" height="213" viewBox="0 0 267 213" fill="none" xmlns="http://www.w3.org/2000/svg">
<path d="M48.0018 1.09198C42.1351 2.95865 34.4018 8.55865 30.8018 13.6253C29.3351 15.892 25.2018 25.7587 21.7351 35.6253C16.1351 51.7587 14.8018 54.292 9.20178 59.7587C5.33512 63.6253 2.40178 67.892 1.46845 71.092C-0.398216 77.6253 -0.531549 134.159 1.33512 138.825C3.06845 143.359 9.20178 146.292 17.2018 146.292C22.8018 146.292 24.6685 145.625 28.2685 142.425C32.2685 138.959 32.6685 137.759 33.0685 129.092L33.6018 119.625H61.8685H90.1351L93.7351 115.892C96.1351 113.492 99.2018 106.559 102.668 96.4253C105.602 87.7587 109.468 78.1587 111.202 74.9587C118.402 62.8253 132.668 54.4253 148.135 53.2253L157.068 52.5587L150.802 34.5587C143.735 14.692 139.468 8.29198 130.268 3.22532C124.935 0.425318 123.068 0.291985 88.6685 0.0253179C67.3351 -0.108015 50.8018 0.291985 48.0018 1.09198ZM120.268 28.5587C121.335 29.892 123.735 35.892 125.602 41.892L129.068 52.9587H86.4018C50.8018 52.9587 43.8685 52.692 44.4018 51.092C44.8018 50.1587 46.4018 45.092 47.8685 39.892C49.4685 34.692 51.7351 29.492 52.8018 28.292C54.5351 26.5587 59.7351 26.292 86.5351 26.292C115.068 26.292 118.402 26.5587 120.268 28.5587ZM40.4018 79.3587C43.6018 82.1587 43.4685 90.5587 40.1351 93.492C36.1351 97.2253 29.4685 96.692 25.7351 92.4253C22.1351 88.1587 21.8685 85.3587 24.8018 81.2253C28.6685 75.7587 35.2018 74.9587 40.4018 79.3587Z" fill="black"/>
<path d="M141.335 67.7585C135.468 69.6252 127.735 75.2252 124.135 80.2918C122.668 82.5585 118.535 92.4252 115.068 102.292C109.468 118.425 108.135 120.958 102.535 126.425C98.6681 130.292 95.7348 134.558 94.8015 137.758C92.9348 144.292 92.8015 200.825 94.6681 205.492C96.4015 210.025 102.535 212.958 110.535 212.958C116.135 212.958 118.001 212.292 121.601 209.092C125.601 205.625 126.001 204.425 126.401 195.758L126.935 186.292H180.135H233.335V194.158C233.335 198.558 233.868 203.625 234.668 205.492C236.401 210.025 242.535 212.958 250.535 212.958C256.135 212.958 258.001 212.292 261.601 209.092L266.001 205.225L266.401 178.025C266.668 163.225 266.535 147.892 266.001 144.158C265.068 136.425 260.135 127.758 254.801 124.558C252.001 122.825 250.135 118.825 244.668 102.958C237.335 81.4918 233.335 75.0918 223.468 69.8918C218.268 67.0918 216.401 66.9585 182.001 66.6918C160.668 66.5585 144.135 66.9585 141.335 67.7585ZM213.601 95.2252C214.668 96.5585 217.068 102.558 218.935 108.558L222.401 119.625H179.735C146.135 119.625 137.201 119.225 137.601 117.892C138.001 117.092 139.601 112.025 141.335 106.958C146.135 92.0252 143.601 92.9585 180.001 92.9585C208.401 92.9585 211.735 93.2252 213.601 95.2252ZM133.735 146.025C136.935 148.825 136.801 157.225 133.468 160.158C129.468 163.892 122.801 163.358 119.068 159.092C115.468 154.825 115.201 152.025 118.135 147.892C122.001 142.425 128.535 141.625 133.735 146.025ZM240.401 146.025C243.601 148.825 243.468 157.225 240.135 160.158C236.135 163.892 229.468 163.358 225.735 159.092C222.135 154.825 221.868 152.025 224.801 147.892C228.668 142.425 235.201 141.625 240.401 146.025Z" fill="black"/>
</svg>
