<svg width="178" height="223" viewBox="0 0 178 223" fill="none" xmlns="http://www.w3.org/2000/svg">
<path d="M89 101.5C102.488 101.5 115.424 96.1531 124.961 86.6357C134.499 77.1182 139.857 64.2097 139.857 50.75C139.857 37.2903 134.499 24.3818 124.961 14.8643C115.424 5.34686 102.488 0 89 0C75.5118 0 62.5761 5.34686 53.0386 14.8643C43.501 24.3818 38.1429 37.2903 38.1429 50.75C38.1429 64.2097 43.501 77.1182 53.0386 86.6357C62.5761 96.1531 75.5118 101.5 89 101.5ZM70.8424 120.531C31.7063 120.531 0 152.171 0 191.224C0 197.727 5.28438 203 11.8004 203H166.2C172.716 203 178 197.727 178 191.224C178 152.171 146.294 120.531 107.158 120.531H70.8424Z" fill="white"/>
<path d="M82.2217 131.483C64.7834 134.02 50.5894 146.071 44.8539 163.197C43.1159 168.328 43 169.193 43 177.035C43 184.877 43.1159 185.742 44.8539 190.874C49.8363 205.866 61.1335 216.879 75.7909 221.088C91.7809 225.701 108.292 221.838 120.111 210.882C129.96 201.657 135 190.297 135 177.035C135 163.773 129.96 152.414 120.111 143.188C110.03 133.847 96.0101 129.465 82.2217 131.483ZM96.5894 143.246C109.045 145.898 120.169 156.969 122.892 169.366L123.297 171.269H114.665H106.091L104.932 169.136C103.078 165.676 102.267 165.503 88.6524 165.503C77.1234 165.503 76.3123 165.561 74.864 166.714C74.0529 167.348 72.9521 168.674 72.4887 169.597L71.5617 171.269H63.1612H54.7028L55.1083 169.136C56.8463 159.737 64.8992 149.877 74.3426 145.495C80.5995 142.612 89.2897 141.747 96.5894 143.246ZM78.2242 189.144L83.2065 195.487V203.271C83.2065 207.538 82.9748 211.055 82.7431 211.055C81.4685 211.055 75.6171 209.037 72.7204 207.596C63.9723 203.213 56.7884 193.93 55.1083 184.935L54.7028 182.801H63.9723H73.2418L78.2242 189.144ZM122.892 184.647C121.617 190.355 117.851 197.217 113.564 201.484C109.277 205.75 102.383 209.498 96.7053 210.767L94.7934 211.171V203.156V195.199L99.602 189.029L104.353 182.859H113.796L123.297 182.801L122.892 184.647Z" fill="#2C76AC"/>
</svg>
