<svg
  width="21"
  height="22"
  viewBox="0 0 21 22"
  fill="none"
  xmlns="http://www.w3.org/2000/svg"
>
  <path
    d="M9.1241 0.98597C7.63854 1.21314 7.23099 1.59176 6.88918 3.0179C6.77086 3.51011 6.57367 4.00232 6.42905 4.12853C6.20556 4.31784 6.12668 4.31784 5.21957 4.07804C3.83918 3.69942 3.37905 3.72466 2.82689 4.20425C2.15642 4.75956 1.19672 6.21095 0.749732 7.32157C0.250162 8.5584 0.329042 8.88654 1.43335 9.93406C2.45879 10.9059 2.45879 11.0699 1.38077 12.1427C0.907491 12.6096 0.486801 13.1397 0.434214 13.329C0.237016 14.1115 1.68314 16.8628 2.8006 17.7841C3.37905 18.289 3.82603 18.3142 5.21957 17.9356C6.12668 17.6958 6.20556 17.6958 6.42905 17.8851C6.57367 18.0113 6.77086 18.5035 6.88918 18.9957C7.15211 20.119 7.5728 20.6617 8.30901 20.8762C8.61138 20.9646 9.59738 21.0277 10.5045 21.0403C13.147 21.0403 13.6465 20.75 14.1198 18.8569C14.409 17.6832 14.5536 17.6074 15.75 17.9482C16.2364 18.087 16.9069 18.2006 17.2224 18.2006C17.7483 18.2006 17.8534 18.1375 18.4845 17.4939C19.2996 16.6735 20.3644 14.7299 20.4564 13.8843C20.5485 13.165 20.3381 12.7863 19.3916 11.8903C18.984 11.5116 18.6554 11.1204 18.6554 11.0321C18.6554 10.9311 19.0761 10.4263 19.5888 9.89619L20.5222 8.96226L20.4696 8.28074C20.3907 7.32157 19.3916 5.44108 18.4845 4.51977C17.8534 3.87611 17.7483 3.81301 17.2224 3.81301C16.9069 3.81301 16.2364 3.9266 15.75 4.06542C14.5536 4.40618 14.409 4.33046 14.1198 3.15673C13.6728 1.36459 13.2127 1.04907 10.8989 0.973349C10.1364 0.948107 9.34759 0.960728 9.1241 0.98597ZM11.7797 2.87908C11.9901 2.94218 12.1215 3.10625 12.2135 3.48487C12.5948 4.86053 13.0155 5.50418 13.8043 5.90805C14.3039 6.14784 15.3819 6.13522 16.2627 5.87019L16.9726 5.65563L17.2881 6.02163C17.459 6.23619 17.8271 6.80412 18.1032 7.30895L18.5896 8.21764L17.8534 8.94964C17.0252 9.75737 16.8937 9.97192 16.7623 10.6408C16.6176 11.4107 16.9726 12.2184 17.8271 13.0514L18.5896 13.796L18.1032 14.7047C17.8271 15.2095 17.459 15.7774 17.2881 15.992L16.9726 16.358L16.2627 16.1434C14.9217 15.7396 13.9357 15.8784 13.1601 16.5978C12.6737 17.0521 12.4633 17.4434 12.2267 18.4152C12.1084 18.8948 11.9901 19.0841 11.7797 19.1346C11.2276 19.2734 9.24242 19.2103 9.03207 19.0588C8.9269 18.9705 8.76914 18.5792 8.67712 18.2006C8.26957 16.3328 6.86289 15.5629 4.85146 16.1056C4.41763 16.2318 3.99694 16.2823 3.91806 16.2318C3.68142 16.093 2.7743 14.6794 2.6034 14.1999C2.45879 13.7708 2.47193 13.7455 3.11612 13.1019C4.57539 11.6883 4.57539 10.3884 3.14241 8.9244C2.47193 8.2555 2.45879 8.23026 2.61655 7.80116C2.8006 7.25846 3.734 5.84494 3.97064 5.7566C4.06267 5.73136 4.43077 5.78184 4.78573 5.89543C6.65254 6.43812 8.09867 5.76922 8.59824 4.16639C8.70341 3.80039 8.79544 3.40915 8.79544 3.29556C8.79544 3.16935 8.90061 3.00528 9.03207 2.94218C9.26871 2.80335 11.3064 2.75287 11.7797 2.87908Z"
    fill="#85898E"
  />
  <path
    d="M9.36283 7.39737C7.20679 8.05365 6.03675 10.3001 6.8124 12.269C7.56175 14.1621 9.61262 15.1717 11.5978 14.6164C12.5575 14.3514 13.6355 13.4175 14.0693 12.4961C14.7529 11.0195 14.3585 9.37882 13.0439 8.23034C11.979 7.29641 10.6906 7.00613 9.36283 7.39737ZM11.4268 9.35358C11.9659 9.61862 12.4786 10.4011 12.4786 10.9438C12.4786 11.1583 12.3471 11.5874 12.1893 11.8903C11.2559 13.6194 8.5346 12.9631 8.5346 11.0069C8.5346 9.58075 10.1122 8.67206 11.4268 9.35358Z"
    fill="#85898E"
  />
</svg>
