<svg width="201" height="268" viewBox="0 0 201 268" fill="none" xmlns="http://www.w3.org/2000/svg">
<g clip-path="url(#clip0_1819_143)">
<path d="M200.617 100.5C200.617 146.249 139.609 227.695 112.86 261.3C106.446 269.309 94.5573 269.309 88.1438 261.3C61.3943 227.695 0.386719 146.249 0.386719 100.5C0.386719 45.0155 45.2299 0 100.502 0C155.773 0 200.617 45.0155 200.617 100.5Z" fill="#FF0000"/>
<path d="M166.723 92.9095C166.723 129.479 137.191 159.124 100.762 159.124C64.3325 159.124 34.8008 129.479 34.8008 92.9095C34.8008 56.3399 64.3325 26.6946 100.762 26.6946C137.191 26.6946 166.723 56.3399 166.723 92.9095Z" fill="white"/>
<path d="M68.1562 112.682C68.1562 112.682 97.8057 133.238 135.926 112.682" stroke="#FF0000" stroke-width="6.16092" stroke-linecap="round"/>
<path d="M75.025 68.958C78.2742 68.958 80.9475 71.6085 80.9481 74.9271C80.9481 78.2463 78.2746 80.8989 75.025 80.8989C71.7757 80.8986 69.1016 78.246 69.1016 74.9271C69.1022 71.6088 71.776 68.9586 75.025 68.958Z" fill="#FF0000" stroke="#FF0000" stroke-width="3.08046"/>
<path d="M127.267 68.958C130.516 68.958 133.19 71.6085 133.19 74.9271C133.19 78.2463 130.517 80.8989 127.267 80.8989C124.018 80.8986 121.344 78.246 121.344 74.9271C121.344 71.6088 124.018 68.9586 127.267 68.958Z" fill="#FF0000" stroke="#FF0000" stroke-width="3.08046"/>
</g>
<defs>
<clipPath id="clip0_1819_143">
<rect width="200.23" height="268" fill="white" transform="translate(0.386719)"/>
</clipPath>
</defs>
</svg>
