<svg width="213" height="213" viewBox="0 0 213 213" fill="none" xmlns="http://www.w3.org/2000/svg">
<path d="M106.667 209.346C122.638 209.346 131.46 209.278 136.825 208.936C141.757 208.621 143.438 208.091 144.957 207.32L145.259 207.163L145.263 207.161C145.755 206.901 147.074 205.907 149.257 204.018C151.334 202.22 153.964 199.816 156.964 196.989C162.96 191.339 170.367 184.061 177.668 176.686C184.969 169.31 192.143 161.857 197.674 155.859C200.442 152.858 202.781 150.241 204.513 148.189C205.38 147.162 206.076 146.298 206.592 145.612C207.006 145.061 207.239 144.708 207.353 144.519L207.428 144.383C208.35 142.428 208.923 140.686 209.256 135.567C209.598 130.304 209.667 121.784 209.667 106.346C209.667 90.9078 209.598 82.3877 209.256 77.124C208.923 72.0052 208.35 70.2635 207.428 68.3086C207.374 68.1975 207.144 67.8141 206.592 67.0791C206.076 66.393 205.38 65.5291 204.513 64.502C202.781 62.4502 200.442 59.833 197.674 56.832C192.143 50.8347 184.969 43.3815 177.668 36.0059C170.367 28.6305 162.96 21.3524 156.964 15.7021C153.964 12.875 151.334 10.4718 149.257 8.67383C147.074 6.7842 145.755 5.79069 145.263 5.53027L145.243 5.52051L145.225 5.50977C143.7 4.67391 142.058 4.09112 136.95 3.72168C132.415 3.39365 125.451 3.25016 113.885 3.12988L108.64 3.0791H108.635C96.1073 2.94583 87.5339 2.97944 81.6592 3.19336C75.7043 3.4102 72.8532 3.80999 71.5088 4.25098C68.125 5.50153 65.7342 6.70954 60.7559 11.0557C56.251 14.9885 49.7853 21.355 38.8379 32.376L33.8643 37.3906L33.8623 37.3926L30.5537 40.7373C23.0918 48.3088 17.4348 54.2567 13.3545 58.8271C8.5827 64.1722 6.2461 67.3377 5.53418 68.9141L5.52832 68.9268L5.52148 68.9404L5.13281 69.8096C4.27376 71.8087 3.75746 73.7299 3.44238 78.0312C3.06895 83.1294 3 91.3009 3 106.346C3 121.391 3.06895 129.562 3.44238 134.66C3.80248 139.576 4.42441 141.384 5.52148 143.751L5.53125 143.771C5.76308 144.281 6.65286 145.588 8.39844 147.744C10.0564 149.792 12.2808 152.362 14.9141 155.289C20.1762 161.139 26.9941 168.331 34.0078 175.478C41.0209 182.624 48.207 189.702 54.2021 195.324C57.2011 198.137 59.8858 200.57 62.0928 202.46C64.0686 204.152 65.5499 205.31 66.4941 205.933L66.8662 206.167L66.877 206.173L72.1641 209.346H106.667Z" fill="#FF0000" stroke="white" stroke-width="6"/>
<path d="M53.1562 117.188C53.1562 116.312 53.0208 115.531 52.75 114.844C52.5 114.135 52.0312 113.5 51.3438 112.938C50.6771 112.354 49.7292 111.792 48.5 111.25C47.2917 110.688 45.7292 110.104 43.8125 109.5C41.6875 108.833 39.7083 108.083 37.875 107.25C36.0417 106.417 34.4271 105.448 33.0312 104.344C31.6562 103.24 30.5833 101.969 29.8125 100.531C29.0417 99.0729 28.6562 97.3854 28.6562 95.4688C28.6562 93.5938 29.0521 91.8854 29.8438 90.3438C30.6562 88.8021 31.8021 87.4792 33.2812 86.375C34.7604 85.25 36.5 84.3854 38.5 83.7812C40.5208 83.1771 42.75 82.875 45.1875 82.875C48.5625 82.875 51.4792 83.4896 53.9375 84.7188C56.4167 85.9479 58.3333 87.6146 59.6875 89.7188C61.0417 91.8229 61.7188 94.1875 61.7188 96.8125H53.1562C53.1562 95.3958 52.8542 94.1458 52.25 93.0625C51.6667 91.9792 50.7708 91.125 49.5625 90.5C48.375 89.875 46.875 89.5625 45.0625 89.5625C43.3125 89.5625 41.8542 89.8229 40.6875 90.3438C39.5417 90.8646 38.6771 91.5729 38.0938 92.4688C37.5312 93.3646 37.25 94.3646 37.25 95.4688C37.25 96.3021 37.4479 97.0521 37.8438 97.7188C38.2396 98.3646 38.8333 98.9792 39.625 99.5625C40.4167 100.125 41.3958 100.656 42.5625 101.156C43.75 101.635 45.125 102.115 46.6875 102.594C49.1875 103.344 51.375 104.177 53.25 105.094C55.1458 106.01 56.7188 107.052 57.9688 108.219C59.2396 109.385 60.1875 110.698 60.8125 112.156C61.4583 113.615 61.7812 115.271 61.7812 117.125C61.7812 119.083 61.3958 120.833 60.625 122.375C59.8542 123.917 58.75 125.229 57.3125 126.312C55.875 127.396 54.1458 128.219 52.125 128.781C50.125 129.344 47.8854 129.625 45.4062 129.625C43.1979 129.625 41.0104 129.333 38.8438 128.75C36.6979 128.146 34.75 127.25 33 126.062C31.25 124.854 29.8542 123.333 28.8125 121.5C27.7708 119.646 27.25 117.479 27.25 115H35.875C35.875 116.438 36.1042 117.667 36.5625 118.688C37.0417 119.688 37.7083 120.51 38.5625 121.156C39.4375 121.781 40.4583 122.24 41.625 122.531C42.7917 122.823 44.0521 122.969 45.4062 122.969C47.1562 122.969 48.5938 122.729 49.7188 122.25C50.8646 121.75 51.7188 121.062 52.2812 120.188C52.8646 119.312 53.1562 118.312 53.1562 117.188ZM87.9375 83.5V129H79.375V83.5H87.9375ZM102.062 83.5V90.2812H65.4062V83.5H102.062ZM143.75 105.094V107.438C143.75 110.875 143.292 113.969 142.375 116.719C141.458 119.448 140.156 121.771 138.469 123.688C136.781 125.604 134.771 127.073 132.438 128.094C130.104 129.115 127.51 129.625 124.656 129.625C121.844 129.625 119.26 129.115 116.906 128.094C114.573 127.073 112.552 125.604 110.844 123.688C109.135 121.771 107.812 119.448 106.875 116.719C105.938 113.969 105.469 110.875 105.469 107.438V105.094C105.469 101.635 105.938 98.5417 106.875 95.8125C107.812 93.0833 109.125 90.7604 110.812 88.8438C112.5 86.9062 114.51 85.4271 116.844 84.4062C119.198 83.3854 121.781 82.875 124.594 82.875C127.448 82.875 130.042 83.3854 132.375 84.4062C134.708 85.4271 136.719 86.9062 138.406 88.8438C140.115 90.7604 141.427 93.0833 142.344 95.8125C143.281 98.5417 143.75 101.635 143.75 105.094ZM135.062 107.438V105.031C135.062 102.552 134.833 100.375 134.375 98.5C133.917 96.6042 133.24 95.0104 132.344 93.7188C131.448 92.4271 130.344 91.4583 129.031 90.8125C127.719 90.1458 126.24 89.8125 124.594 89.8125C122.927 89.8125 121.448 90.1458 120.156 90.8125C118.885 91.4583 117.802 92.4271 116.906 93.7188C116.01 95.0104 115.323 96.6042 114.844 98.5C114.385 100.375 114.156 102.552 114.156 105.031V107.438C114.156 109.896 114.385 112.073 114.844 113.969C115.323 115.865 116.01 117.469 116.906 118.781C117.823 120.073 118.927 121.052 120.219 121.719C121.51 122.385 122.99 122.719 124.656 122.719C126.323 122.719 127.802 122.385 129.094 121.719C130.385 121.052 131.469 120.073 132.344 118.781C133.24 117.469 133.917 115.865 134.375 113.969C134.833 112.073 135.062 109.896 135.062 107.438ZM168.531 112.406H156.812V105.656H168.531C170.448 105.656 172 105.344 173.188 104.719C174.396 104.073 175.281 103.198 175.844 102.094C176.406 100.969 176.688 99.6875 176.688 98.25C176.688 96.8542 176.406 95.5521 175.844 94.3438C175.281 93.1354 174.396 92.1562 173.188 91.4062C172 90.6562 170.448 90.2812 168.531 90.2812H159.625V129H151.031V83.5H168.531C172.073 83.5 175.094 84.1354 177.594 85.4062C180.115 86.6562 182.031 88.3958 183.344 90.625C184.677 92.8333 185.344 95.3542 185.344 98.1875C185.344 101.125 184.677 103.656 183.344 105.781C182.031 107.906 180.115 109.542 177.594 110.688C175.094 111.833 172.073 112.406 168.531 112.406Z" fill="white"/>
</svg>
